<svg width="311" height="54" viewBox="0 0 311 54" fill="none" xmlns="http://www.w3.org/2000/svg">
<path d="M225.406 20.0893C232.039 15.6105 238.653 12.3661 244.009 10.7609C246.679 9.96055 249.109 9.54565 251.105 9.62981C253.07 9.71273 254.891 10.3 255.911 11.811L253.823 13.2206C253.461 12.6836 252.635 12.216 250.998 12.147C249.393 12.0793 247.265 12.415 244.732 13.1742C239.681 14.6881 233.298 17.8009 226.816 22.1777C220.334 26.5545 215.062 31.3107 211.77 35.4302C210.119 37.4961 209.012 39.3443 208.475 40.8588C207.928 42.4023 208.053 43.343 208.415 43.88L206.327 45.2901C205.307 43.7791 205.443 41.8707 206.1 40.0168C206.768 38.1338 208.061 36.0356 209.802 33.8577C213.292 29.4895 218.773 24.5681 225.406 20.0893Z" fill="#7F7F7F"/>
<path d="M102.047 38.2596C102.941 36.3987 105.175 35.6152 107.036 36.5096C108.897 37.4042 109.68 39.6376 108.785 41.4983L104.601 50.2044C103.706 52.0652 101.473 52.8487 99.612 51.9543C97.7511 51.0599 96.9676 48.8265 97.862 46.9657L102.047 38.2596Z" fill="black"/>
<path d="M105.909 31.2135C105.536 31.1057 105.609 30.5503 105.997 30.557C132.154 31.0057 139.706 38.4819 143.491 46.5652L143.695 46.9993L143.772 47.1753C144.519 49.0066 143.706 51.1218 141.895 51.9701C140.083 52.8183 137.938 52.0887 137.01 50.3426L136.924 50.1698L136.72 49.7366C133.926 43.7708 124.302 36.5205 105.909 31.2135Z" fill="black"/>
<path d="M116.896 7.36582C118.539 3.94775 123.364 3.9186 125.073 7.24656L125.153 7.4072L129.272 16.2033L129.349 16.3793C130.096 18.2107 129.283 20.3258 127.471 21.1741C125.602 22.0494 123.376 21.2435 122.501 19.3738L120.98 16.1278L117.612 23.1342C116.953 24.5062 115.703 25.5016 114.218 25.8369L109.188 26.9728C108.514 27.125 107.959 26.4357 108.253 25.8099L116.896 7.36582Z" fill="black"/>
<path d="M274.594 52.5096C273.309 52.5096 272.312 52.1551 271.603 51.4462C270.939 50.7373 270.606 49.7182 270.606 48.389V8.84436C270.606 7.47082 270.939 6.42959 271.603 5.72067C272.312 4.96744 273.221 4.59082 274.328 4.59082C275.347 4.59082 276.101 4.79021 276.588 5.18898C277.12 5.54344 277.74 6.16374 278.449 7.0499L303.904 40.0813H302.176V8.64498C302.176 7.36005 302.508 6.36313 303.173 5.65421C303.882 4.94528 304.878 4.59082 306.163 4.59082C307.448 4.59082 308.423 4.94528 309.088 5.65421C309.752 6.36313 310.085 7.36005 310.085 8.64498V48.5219C310.085 49.7625 309.774 50.7373 309.154 51.4462C308.534 52.1551 307.692 52.5096 306.629 52.5096C305.61 52.5096 304.79 52.3102 304.17 51.9114C303.594 51.5127 302.951 50.8702 302.242 49.9841L276.854 16.9527H278.515V48.389C278.515 49.7182 278.183 50.7373 277.518 51.4462C276.854 52.1551 275.879 52.5096 274.594 52.5096Z" fill="black"/>
<path d="M231.118 52.6424C226.599 52.6424 222.633 51.6455 219.222 49.6516C215.854 47.6578 213.24 44.8664 211.379 41.2775C209.518 37.6442 208.588 33.3907 208.588 28.5168C208.588 24.8393 209.12 21.5384 210.183 18.6141C211.246 15.6455 212.753 13.1199 214.702 11.0375C216.696 8.91069 219.067 7.29346 221.814 6.18577C224.605 5.03376 227.707 4.45776 231.118 4.45776C235.682 4.45776 239.648 5.45469 243.015 7.44853C246.382 9.39807 248.997 12.1673 250.857 15.7562C252.718 19.3451 253.649 23.5765 253.649 28.4504C253.649 32.1279 253.117 35.451 252.054 38.4196C250.99 41.3882 249.462 43.9359 247.468 46.0627C245.518 48.1895 243.148 49.8288 240.356 50.9808C237.609 52.0885 234.53 52.6424 231.118 52.6424ZM231.118 45.3316C233.998 45.3316 236.435 44.667 238.429 43.3378C240.467 42.0085 242.018 40.0811 243.081 37.5556C244.189 35.0301 244.743 32.0171 244.743 28.5168C244.743 23.1999 243.547 19.0793 241.154 16.155C238.806 13.2307 235.461 11.7685 231.118 11.7685C228.283 11.7685 225.846 12.4331 223.808 13.7624C221.769 15.0473 220.197 16.9525 219.089 19.4781C218.025 21.9593 217.494 24.9722 217.494 28.5168C217.494 33.7895 218.69 37.9101 221.083 40.8787C223.475 43.8473 226.821 45.3316 231.118 45.3316Z" fill="white"/>
<path d="M231.118 52.6424C226.599 52.6424 222.633 51.6455 219.222 49.6516C215.854 47.6578 213.24 44.8664 211.379 41.2775C209.518 37.6442 208.588 33.3907 208.588 28.5168C208.588 24.8393 209.12 21.5384 210.183 18.6141C211.246 15.6455 212.753 13.1199 214.702 11.0375C216.696 8.91069 219.067 7.29346 221.814 6.18577C224.605 5.03376 227.707 4.45776 231.118 4.45776C235.682 4.45776 239.648 5.45469 243.015 7.44853C246.382 9.39807 248.997 12.1673 250.857 15.7562C252.718 19.3451 253.649 23.5765 253.649 28.4504C253.649 32.1279 253.117 35.451 252.054 38.4196C250.99 41.3882 249.462 43.9359 247.468 46.0627C245.518 48.1895 243.148 49.8288 240.356 50.9808C237.609 52.0885 234.53 52.6424 231.118 52.6424ZM231.118 45.3316C233.998 45.3316 236.435 44.667 238.429 43.3378C240.467 42.0085 242.018 40.0811 243.081 37.5556C244.189 35.0301 244.743 32.0171 244.743 28.5168C244.743 23.1999 243.547 19.0793 241.154 16.155C238.806 13.2307 235.461 11.7685 231.118 11.7685C228.283 11.7685 225.846 12.4331 223.808 13.7624C221.769 15.0473 220.197 16.9525 219.089 19.4781C218.025 21.9593 217.494 24.9722 217.494 28.5168C217.494 33.7895 218.69 37.9101 221.083 40.8787C223.475 43.8473 226.821 45.3316 231.118 45.3316Z" fill="black"/>
<path d="M179.928 52.6424C175.054 52.6424 170.867 51.6676 167.366 49.7181C163.91 47.7242 161.252 44.9328 159.391 41.3439C157.53 37.7107 156.6 33.435 156.6 28.5168C156.6 24.8393 157.131 21.5384 158.195 18.6141C159.258 15.6455 160.787 13.1199 162.781 11.0375C164.774 8.91069 167.211 7.29346 170.091 6.18577C173.016 5.03376 176.294 4.45776 179.928 4.45776C182.365 4.45776 184.757 4.76792 187.105 5.38823C189.454 6.00853 191.514 6.89469 193.286 8.04669C194.217 8.62269 194.837 9.33161 195.147 10.1735C195.457 10.971 195.524 11.7685 195.347 12.5661C195.169 13.3193 194.793 13.9618 194.217 14.4935C193.685 15.0251 192.998 15.3353 192.157 15.4239C191.359 15.4682 190.473 15.1802 189.498 14.5599C188.125 13.6738 186.64 13.0313 185.045 12.6325C183.45 12.2338 181.833 12.0344 180.193 12.0344C177.048 12.0344 174.389 12.6768 172.218 13.9618C170.047 15.2467 168.408 17.1076 167.3 19.5445C166.192 21.9815 165.638 24.9722 165.638 28.5168C165.638 32.0171 166.192 35.0079 167.3 37.4891C168.408 39.9704 170.047 41.8535 172.218 43.1384C174.389 44.4233 177.048 45.0658 180.193 45.0658C181.877 45.0658 183.539 44.8664 185.178 44.4676C186.817 44.0245 188.368 43.3599 189.83 42.4738C190.805 41.8978 191.669 41.6541 192.422 41.7427C193.22 41.787 193.885 42.0528 194.416 42.5402C194.948 43.0276 195.302 43.6479 195.48 44.4011C195.657 45.1101 195.613 45.8633 195.347 46.6608C195.081 47.4141 194.549 48.0787 193.752 48.6547C191.979 49.9396 189.853 50.9365 187.371 51.6455C184.934 52.3101 182.453 52.6424 179.928 52.6424Z" fill="black"/>
<path d="M58.7367 51.9779C57.2745 51.9779 56.1447 51.6013 55.3471 50.8481C54.5939 50.0506 54.2173 48.9207 54.2173 47.4586V9.64194C54.2173 8.17979 54.5939 7.0721 55.3471 6.31887C56.1447 5.52133 57.2745 5.12256 58.7367 5.12256H82.4634C83.5711 5.12256 84.413 5.41056 84.989 5.98656C85.6093 6.56256 85.9194 7.38225 85.9194 8.44564C85.9194 9.55333 85.6093 10.4173 84.989 11.0376C84.413 11.6136 83.5711 11.9016 82.4634 11.9016H62.3921V24.7952H81.0013C82.1533 24.7952 83.0173 25.0832 83.5933 25.6592C84.1693 26.2352 84.4573 27.077 84.4573 28.1847C84.4573 29.2924 84.1693 30.1343 83.5933 30.7103C83.0173 31.2863 82.1533 31.5743 81.0013 31.5743H62.3921V45.1989H82.4634C83.5711 45.1989 84.413 45.4869 84.989 46.0629C85.6093 46.6389 85.9194 47.4807 85.9194 48.5884C85.9194 49.6961 85.6093 50.5379 84.989 51.1139C84.413 51.6899 83.5711 51.9779 82.4634 51.9779H58.7367Z" fill="black"/>
<path d="M4.67173 51.9779C3.20957 51.9779 2.07973 51.6013 1.28219 50.8481C0.528959 50.0506 0.152344 48.9207 0.152344 47.4586V9.64194C0.152344 8.17979 0.528959 7.0721 1.28219 6.31887C2.07973 5.52133 3.20957 5.12256 4.67173 5.12256H20.6225C23.9013 5.12256 26.6927 5.60994 28.9967 6.58471C31.3007 7.55948 33.0508 8.95518 34.2471 10.7718C35.4877 12.5884 36.108 14.7595 36.108 17.285C36.108 20.1207 35.2883 22.5133 33.649 24.4629C32.0096 26.4124 29.772 27.7195 26.9363 28.3841V27.3872C30.2151 27.8746 32.7628 29.1152 34.5794 31.109C36.396 33.1029 37.3043 35.6949 37.3043 38.885C37.3043 43.0499 35.8865 46.2844 33.0508 48.5884C30.2594 50.8481 26.3603 51.9779 21.3536 51.9779H4.67173ZM8.32711 45.5312H20.2902C23.3031 45.5312 25.5185 44.9552 26.9363 43.8032C28.3542 42.6069 29.0631 40.8346 29.0631 38.4863C29.0631 36.0936 28.3542 34.3213 26.9363 33.1693C25.5185 32.0173 23.3031 31.4413 20.2902 31.4413H8.32711V45.5312ZM8.32711 24.9946H19.1603C22.0847 24.9946 24.2557 24.4407 25.6736 23.333C27.1357 22.181 27.8668 20.4973 27.8668 18.2819C27.8668 16.0666 27.1357 14.405 25.6736 13.2973C24.2557 12.1453 22.0847 11.5693 19.1603 11.5693H8.32711V24.9946Z" fill="black"/>
<circle cx="231.118" cy="28.5501" r="18.41" fill="white"/>
<circle cx="231.118" cy="28.5501" r="18.41" fill="black"/>
<path d="M258.346 12.5151C258.346 14.4192 256.802 15.9628 254.898 15.9628C252.994 15.9628 251.451 14.4192 251.451 12.5151C251.451 10.611 252.994 9.06738 254.898 9.06738C256.802 9.06738 258.346 10.611 258.346 12.5151Z" fill="#7F7F7F"/>
<path d="M210.818 44.5842C210.818 46.4883 209.274 48.0319 207.37 48.0319C205.466 48.0319 203.922 46.4883 203.922 44.5842C203.922 42.6801 205.466 41.1365 207.37 41.1365C209.274 41.1365 210.818 42.6801 210.818 44.5842Z" fill="#7F7F7F"/>
<path d="M231.118 35.4137C230.719 35.4137 230.41 35.3047 230.192 35.0868C229.975 34.8508 229.866 34.533 229.866 34.1336V29.6668H225.481C225.099 29.6668 224.8 29.5669 224.582 29.3672C224.364 29.1493 224.255 28.8497 224.255 28.4684C224.255 28.0871 224.364 27.7966 224.582 27.5968C224.8 27.3789 225.099 27.27 225.481 27.27H229.866V22.9394C229.866 22.5399 229.975 22.2313 230.192 22.0134C230.41 21.7955 230.728 21.6865 231.146 21.6865C231.545 21.6865 231.845 21.7955 232.045 22.0134C232.262 22.2313 232.371 22.5399 232.371 22.9394V27.27H236.756C237.156 27.27 237.455 27.3789 237.655 27.5968C237.873 27.7966 237.982 28.0871 237.982 28.4684C237.982 28.8497 237.873 29.1493 237.655 29.3672C237.455 29.5669 237.156 29.6668 236.756 29.6668H232.371V34.1336C232.371 34.533 232.262 34.8508 232.045 35.0868C231.845 35.3047 231.536 35.4137 231.118 35.4137Z" fill="white"/>
<path d="M208.415 43.8797C208.777 44.4167 209.603 44.8843 211.239 44.9533C212.845 45.0209 214.973 44.6853 217.506 43.9261C222.557 42.4122 228.939 39.2998 235.421 34.9231C241.903 30.5462 247.176 25.7896 250.468 21.6701C252.119 19.6043 253.225 17.756 253.763 16.2415C254.31 14.698 254.185 13.7573 253.823 13.2203L255.91 11.8107C256.931 13.3217 256.795 15.2296 256.137 17.0835C255.469 18.9665 254.177 21.0647 252.436 23.2427C248.946 27.6108 243.464 32.532 236.831 37.0108C230.198 41.4895 223.585 44.7342 218.229 46.3394C215.558 47.1398 213.129 47.5547 211.133 47.4705C209.167 47.3876 207.346 46.8009 206.326 45.2898L208.415 43.8797Z" fill="#7F7F7F"/>
</svg>
