<svg width="1105" height="180" viewBox="0 0 1105 180" fill="none" xmlns="http://www.w3.org/2000/svg">
<path d="M1104.15 149.937H1090.71L967.571 63.7526V149.937H943.715V31.6646H967.403L1080.13 112.641V31.6646H1104.15V149.937Z" fill="black"/>
<path d="M683.455 149.937H585.847C558.295 149.937 547.879 138.345 547.879 121.377V60.2246C547.879 43.2566 558.295 31.6646 585.847 31.6646H683.455V53.0006H585.847C578.959 53.0006 575.263 55.1846 575.263 59.8886V121.545C575.263 126.417 578.959 128.433 585.847 128.433H683.455V149.937Z" fill="black"/>
<path d="M380.223 93.3687C388.967 94.6971 397.678 96.5781 406.175 99.0151L373.115 149.937H342.539L380.223 93.3687ZM519.779 149.937H488.867C476.791 129.846 457.128 114.592 434.185 104.028L434.183 104.023C433.933 103.908 433.683 103.796 433.433 103.682C433.34 103.64 433.248 103.598 433.155 103.556C430.313 102.27 427.422 101.057 424.49 99.9136C424.421 99.8866 424.352 99.8594 424.283 99.8325C409.771 94.1929 394.265 90.2906 378.74 88.0962C378.659 88.0846 378.577 88.0735 378.495 88.062C377.805 87.9653 377.115 87.8717 376.425 87.7817C376.349 87.7718 376.272 87.7613 376.196 87.7515C375.44 87.6536 374.683 87.559 373.927 87.4692C371.326 87.1733 368.695 86.9274 366.083 86.7349V85.5981C368.71 85.4054 371.372 85.267 374.018 85.1792C377.861 85.1154 381.741 85.1303 385.644 85.2329C394.885 85.4759 404.257 86.2144 413.597 87.5825V87.5845C428.202 89.7239 442.729 93.4005 456.549 99.1372L431.579 59.8882L416.585 82.98C407.331 81.5242 398.053 80.686 388.904 80.3364L421.331 31.6646H441.491L519.779 149.937Z" fill="black"/>
<path d="M308.267 149.937H183.611V31.6646H308.267V53.0006H210.995V76.6886H303.059V98.1926H210.995V128.433H308.267V149.937Z" fill="black"/>
<path d="M98.952 149.937H0V31.6646H98.616C125.496 31.6646 135.744 41.4086 135.744 57.2006V67.9526C135.744 79.3766 130.2 84.9206 123.312 87.6086C130.536 89.4566 137.256 93.8246 137.256 106.761V124.401C137.256 137.841 128.856 149.937 98.952 149.937ZM109.872 120.033V108.273C109.872 101.889 106.68 99.3686 98.616 99.3686H27.384V128.433H98.952C106.344 128.433 109.872 126.081 109.872 120.033ZM108.192 69.2966V60.3926C108.192 54.6806 105.504 53.0006 98.616 53.0006H27.384V77.8646H98.616C106.344 77.8646 108.192 75.8486 108.192 69.2966Z" fill="black"/>
<path d="M797.692 59.7664C821.376 43.7753 844.989 32.1918 864.112 26.4605C873.647 23.6031 882.321 22.1217 889.448 22.4222C896.464 22.7182 902.964 24.815 906.607 30.2098L899.153 35.2427C897.858 33.3254 894.91 31.6559 889.068 31.4096C883.335 31.1679 875.738 32.3664 866.694 35.077C848.659 40.4821 825.871 51.5958 802.727 67.2228C779.583 82.8495 760.76 99.8311 749.007 114.539C743.113 121.915 739.162 128.514 737.243 133.921C735.289 139.432 735.735 142.791 737.03 144.708L729.573 149.742C725.931 144.348 726.417 137.534 728.765 130.915C731.15 124.192 735.766 116.701 741.979 108.924C754.442 93.3287 774.009 75.7573 797.692 59.7664Z" fill="black"/>
<path d="M915.537 32.4782C915.537 39.2966 910.01 44.824 903.192 44.824C896.373 44.824 890.846 39.2966 890.846 32.4782C890.846 25.6598 896.373 20.1323 903.192 20.1323C910.01 20.1323 915.537 25.6598 915.537 32.4782Z" fill="black"/>
<path d="M745.34 147.118C745.34 153.936 739.813 159.464 732.994 159.464C726.176 159.464 720.648 153.936 720.648 147.118C720.648 140.299 726.176 134.772 732.994 134.772C739.813 134.772 745.34 140.299 745.34 147.118Z" fill="black"/>
<path d="M890.771 85.166C890.921 87.0697 891 88.9941 891 90.9365C891 130.701 858.765 162.937 819 162.937C806.998 162.937 795.682 159.998 785.731 154.804C803.478 148.196 823.692 137.63 843.8 124.054C862.247 111.598 878.378 98.1114 890.771 85.166ZM819 18.9365C853.71 18.9365 882.683 43.4984 889.487 76.1895C877.139 89.881 859.981 104.615 839.852 118.207L837.632 119.692C816.521 133.705 795.577 144.175 777.932 150.082C759.237 137.077 747 115.436 747 90.9365C747 51.172 779.235 18.9365 819 18.9365Z" fill="black"/>
<path d="M822.347 110.937H814.736V94.7843H798.584V87.1733H814.736V70.9365H822.347V87.1733H838.584V94.7843H822.347V110.937Z" fill="#F5F5F5"/>
<path d="M737.027 144.707C738.321 146.624 741.27 148.293 747.112 148.54C752.844 148.781 760.442 147.583 769.486 144.872C787.52 139.467 810.306 128.355 833.45 112.728C856.594 97.1013 875.419 80.1185 887.173 65.4103C893.067 58.0345 897.018 51.4354 898.936 46.0283C900.891 40.5174 900.444 37.1588 899.15 35.2415L906.604 30.2085C910.246 35.6035 909.762 42.4154 907.414 49.0345C905.029 55.7574 900.414 63.2489 894.2 71.0249C881.737 86.6209 862.166 104.191 838.483 120.182C814.8 136.173 791.19 147.758 772.067 153.489C762.532 156.346 753.859 157.828 746.732 157.527C739.714 157.231 733.213 155.136 729.57 149.741L737.027 144.707Z" fill="black"/>
</svg>
