<svg width="374" height="134" viewBox="0 0 374 134" fill="none" xmlns="http://www.w3.org/2000/svg">
<g opacity="0.8">
<path d="M4.352 113.203C3.89867 113.203 3.54733 113.078 3.298 112.829C3.07133 112.557 2.958 112.194 2.958 111.741V90.4228C2.958 89.9468 3.08267 89.5955 3.332 89.3688C3.58133 89.1195 3.93267 88.9948 4.386 88.9948H12.444C15.0053 88.9948 16.9773 89.6295 18.36 90.8988C19.7427 92.1455 20.434 93.9135 20.434 96.2028C20.434 98.4695 19.7427 100.238 18.36 101.507C16.9773 102.776 15.0053 103.411 12.444 103.411H5.746V111.741C5.746 112.194 5.63267 112.557 5.406 112.829C5.17933 113.078 4.828 113.203 4.352 113.203ZM5.746 101.065H12.104C13.94 101.065 15.3227 100.657 16.252 99.8408C17.204 99.0022 17.68 97.7895 17.68 96.2028C17.68 94.5935 17.204 93.3808 16.252 92.5648C15.3227 91.7262 13.94 91.3068 12.104 91.3068H5.746V101.065ZM30.6276 113.203C30.1743 113.203 29.823 113.078 29.5736 112.829C29.347 112.557 29.2336 112.194 29.2336 111.741V90.4228C29.2336 89.9468 29.3583 89.5955 29.6076 89.3688C29.857 89.1195 30.2083 88.9948 30.6616 88.9948H38.7196C41.281 88.9948 43.253 89.5955 44.6356 90.7968C46.0183 91.9982 46.7096 93.7095 46.7096 95.9308C46.7096 97.3362 46.3923 98.5602 45.7576 99.6028C45.1456 100.623 44.239 101.405 43.0376 101.949C41.8363 102.47 40.397 102.731 38.7196 102.731L39.0596 102.289H39.7396C40.6236 102.289 41.3943 102.516 42.0516 102.969C42.709 103.422 43.3096 104.148 43.8536 105.145L47.1176 111.231C47.299 111.548 47.3783 111.866 47.3556 112.183C47.3556 112.478 47.2536 112.727 47.0496 112.931C46.8456 113.112 46.551 113.203 46.1656 113.203C45.7803 113.203 45.463 113.112 45.2136 112.931C44.9643 112.75 44.749 112.489 44.5676 112.149L40.8616 105.281C40.3403 104.306 39.7396 103.66 39.0596 103.343C38.3796 103.003 37.4843 102.833 36.3736 102.833H32.0216V111.741C32.0216 112.194 31.9083 112.557 31.6816 112.829C31.455 113.078 31.1036 113.203 30.6276 113.203ZM32.0216 100.623H38.3116C40.1703 100.623 41.5756 100.238 42.5276 99.4668C43.4796 98.6735 43.9556 97.4948 43.9556 95.9308C43.9556 94.4122 43.4796 93.2675 42.5276 92.4968C41.5756 91.7035 40.1703 91.3068 38.3116 91.3068H32.0216V100.623ZM66.6358 113.271C64.4144 113.271 62.4764 112.772 60.8218 111.775C59.1898 110.755 57.9204 109.327 57.0138 107.491C56.1298 105.655 55.6878 103.479 55.6878 100.963C55.6878 99.0588 55.9371 97.3588 56.4358 95.8628C56.9571 94.3442 57.6938 93.0635 58.6458 92.0208C59.5978 90.9555 60.7424 90.1395 62.0798 89.5728C63.4398 88.9835 64.9584 88.6888 66.6358 88.6888C68.9024 88.6888 70.8518 89.1875 72.4838 90.1848C74.1384 91.1822 75.4078 92.5988 76.2918 94.4348C77.1984 96.2482 77.6518 98.4128 77.6518 100.929C77.6518 102.833 77.3911 104.544 76.8698 106.063C76.3484 107.582 75.6118 108.874 74.6598 109.939C73.7078 111.004 72.5518 111.832 71.1918 112.421C69.8544 112.988 68.3358 113.271 66.6358 113.271ZM66.6358 110.789C68.3584 110.789 69.8091 110.404 70.9878 109.633C72.1891 108.862 73.1071 107.74 73.7418 106.267C74.3764 104.794 74.6938 103.026 74.6938 100.963C74.6938 97.8575 73.9911 95.4548 72.5858 93.7548C71.2031 92.0322 69.2198 91.1708 66.6358 91.1708C64.9584 91.1708 63.5191 91.5562 62.3178 92.3268C61.1391 93.0975 60.2324 94.2195 59.5978 95.6928C58.9631 97.1435 58.6458 98.9002 58.6458 100.963C58.6458 104.046 59.3484 106.46 60.7538 108.205C62.1591 109.928 64.1198 110.789 66.6358 110.789ZM93.1781 113.203C92.7474 113.203 92.4074 113.078 92.1581 112.829C91.9087 112.557 91.7841 112.194 91.7841 111.741V91.4088H84.1341C83.7261 91.4088 83.4087 91.2955 83.1821 91.0688C82.9554 90.8422 82.8421 90.5475 82.8421 90.1848C82.8421 89.7995 82.9554 89.5048 83.1821 89.3008C83.4087 89.0968 83.7261 88.9948 84.1341 88.9948H102.256C102.664 88.9948 102.981 89.0968 103.208 89.3008C103.435 89.5048 103.548 89.7995 103.548 90.1848C103.548 90.5702 103.435 90.8762 103.208 91.1028C102.981 91.3068 102.664 91.4088 102.256 91.4088H94.6061V111.741C94.6061 112.194 94.4814 112.557 94.2321 112.829C94.0054 113.078 93.6541 113.203 93.1781 113.203ZM119.685 113.271C117.464 113.271 115.526 112.772 113.871 111.775C112.239 110.755 110.97 109.327 110.063 107.491C109.179 105.655 108.737 103.479 108.737 100.963C108.737 99.0588 108.986 97.3588 109.485 95.8628C110.006 94.3442 110.743 93.0635 111.695 92.0208C112.647 90.9555 113.792 90.1395 115.129 89.5728C116.489 88.9835 118.008 88.6888 119.685 88.6888C121.952 88.6888 123.901 89.1875 125.533 90.1848C127.188 91.1822 128.457 92.5988 129.341 94.4348C130.248 96.2482 130.701 98.4128 130.701 100.929C130.701 102.833 130.44 104.544 129.919 106.063C129.398 107.582 128.661 108.874 127.709 109.939C126.757 111.004 125.601 111.832 124.241 112.421C122.904 112.988 121.385 113.271 119.685 113.271ZM119.685 110.789C121.408 110.789 122.858 110.404 124.037 109.633C125.238 108.862 126.156 107.74 126.791 106.267C127.426 104.794 127.743 103.026 127.743 100.963C127.743 97.8575 127.04 95.4548 125.635 93.7548C124.252 92.0322 122.269 91.1708 119.685 91.1708C118.008 91.1708 116.568 91.5562 115.367 92.3268C114.188 93.0975 113.282 94.2195 112.647 95.6928C112.012 97.1435 111.695 98.9002 111.695 100.963C111.695 104.046 112.398 106.46 113.803 108.205C115.208 109.928 117.169 110.789 119.685 110.789ZM141.772 113.203C141.341 113.203 141.012 113.09 140.786 112.863C140.559 112.614 140.446 112.262 140.446 111.809V90.1848C140.446 89.7315 140.559 89.3802 140.786 89.1308C141.012 88.8815 141.307 88.7568 141.67 88.7568C142.032 88.7568 142.293 88.8248 142.452 88.9608C142.633 89.0742 142.837 89.2895 143.064 89.6068L157.888 109.361H157.072V90.1168C157.072 89.6862 157.185 89.3575 157.412 89.1308C157.638 88.8815 157.967 88.7568 158.398 88.7568C158.806 88.7568 159.112 88.8815 159.316 89.1308C159.542 89.3575 159.656 89.6862 159.656 90.1168V111.843C159.656 112.274 159.554 112.614 159.35 112.863C159.168 113.09 158.896 113.203 158.534 113.203C158.194 113.203 157.922 113.135 157.718 112.999C157.514 112.863 157.298 112.648 157.072 112.353L142.282 92.5988H143.064V111.809C143.064 112.262 142.95 112.614 142.724 112.863C142.497 113.09 142.18 113.203 141.772 113.203Z" fill="black"/>
<path d="M199.234 113.203C198.803 113.203 198.463 113.078 198.214 112.829C197.965 112.557 197.84 112.194 197.84 111.741V91.4088H190.19C189.782 91.4088 189.465 91.2955 189.238 91.0688C189.011 90.8422 188.898 90.5475 188.898 90.1848C188.898 89.7995 189.011 89.5048 189.238 89.3008C189.465 89.0968 189.782 88.9948 190.19 88.9948H208.312C208.72 88.9948 209.037 89.0968 209.264 89.3008C209.491 89.5048 209.604 89.7995 209.604 90.1848C209.604 90.5702 209.491 90.8762 209.264 91.1028C209.037 91.3068 208.72 91.4088 208.312 91.4088H200.662V111.741C200.662 112.194 200.537 112.557 200.288 112.829C200.061 113.078 199.71 113.203 199.234 113.203ZM218.565 113.203C218.112 113.203 217.76 113.078 217.511 112.829C217.284 112.557 217.171 112.194 217.171 111.741V90.2188C217.171 89.7428 217.284 89.3802 217.511 89.1308C217.76 88.8815 218.112 88.7568 218.565 88.7568C219.018 88.7568 219.358 88.8815 219.585 89.1308C219.834 89.3802 219.959 89.7428 219.959 90.2188V99.6028H234.341V90.2188C234.341 89.7428 234.454 89.3802 234.681 89.1308C234.93 88.8815 235.282 88.7568 235.735 88.7568C236.188 88.7568 236.528 88.8815 236.755 89.1308C237.004 89.3802 237.129 89.7428 237.129 90.2188V111.741C237.129 112.194 237.004 112.557 236.755 112.829C236.528 113.078 236.188 113.203 235.735 113.203C235.282 113.203 234.93 113.078 234.681 112.829C234.454 112.557 234.341 112.194 234.341 111.741V102.017H219.959V111.741C219.959 112.194 219.846 112.557 219.619 112.829C219.392 113.078 219.041 113.203 218.565 113.203ZM249.326 112.965C248.828 112.965 248.442 112.84 248.17 112.591C247.921 112.319 247.796 111.934 247.796 111.435V90.5248C247.796 90.0262 247.921 89.6522 248.17 89.4028C248.442 89.1308 248.828 88.9948 249.326 88.9948H261.974C262.36 88.9948 262.654 89.0968 262.858 89.3008C263.062 89.5048 263.164 89.7882 263.164 90.1508C263.164 90.5362 263.062 90.8308 262.858 91.0348C262.654 91.2388 262.36 91.3408 261.974 91.3408H250.516V99.6368H261.26C261.646 99.6368 261.94 99.7388 262.144 99.9428C262.348 100.124 262.45 100.408 262.45 100.793C262.45 101.178 262.348 101.473 262.144 101.677C261.94 101.881 261.646 101.983 261.26 101.983H250.516V110.619H261.974C262.36 110.619 262.654 110.721 262.858 110.925C263.062 111.129 263.164 111.412 263.164 111.775C263.164 112.16 263.062 112.455 262.858 112.659C262.654 112.863 262.36 112.965 261.974 112.965H249.326ZM273.773 113.203C273.319 113.203 272.968 113.078 272.719 112.829C272.492 112.557 272.379 112.194 272.379 111.741V90.4228C272.379 89.9468 272.503 89.5955 272.753 89.3688C273.002 89.1195 273.353 88.9948 273.807 88.9948H281.865C284.426 88.9948 286.398 89.5955 287.781 90.7968C289.163 91.9982 289.855 93.7095 289.855 95.9308C289.855 97.3362 289.537 98.5602 288.903 99.6028C288.291 100.623 287.384 101.405 286.183 101.949C284.981 102.47 283.542 102.731 281.865 102.731L282.205 102.289H282.885C283.769 102.289 284.539 102.516 285.197 102.969C285.854 103.422 286.455 104.148 286.999 105.145L290.263 111.231C290.444 111.548 290.523 111.866 290.501 112.183C290.501 112.478 290.399 112.727 290.195 112.931C289.991 113.112 289.696 113.203 289.311 113.203C288.925 113.203 288.608 113.112 288.359 112.931C288.109 112.75 287.894 112.489 287.713 112.149L284.007 105.281C283.485 104.306 282.885 103.66 282.205 103.343C281.525 103.003 280.629 102.833 279.519 102.833H275.167V111.741C275.167 112.194 275.053 112.557 274.827 112.829C274.6 113.078 274.249 113.203 273.773 113.203ZM275.167 100.623H281.457C283.315 100.623 284.721 100.238 285.673 99.4668C286.625 98.6735 287.101 97.4948 287.101 95.9308C287.101 94.4122 286.625 93.2675 285.673 92.4968C284.721 91.7035 283.315 91.3068 281.457 91.3068H275.167V100.623ZM299.008 113.203C298.645 113.203 298.35 113.124 298.124 112.965C297.92 112.784 297.795 112.557 297.75 112.285C297.727 111.99 297.795 111.662 297.954 111.299L307.304 90.0148C307.508 89.5615 307.746 89.2442 308.018 89.0628C308.312 88.8588 308.63 88.7568 308.97 88.7568C309.31 88.7568 309.616 88.8588 309.888 89.0628C310.182 89.2442 310.42 89.5615 310.602 90.0148L319.986 111.299C320.167 111.662 320.235 111.99 320.19 112.285C320.167 112.58 320.054 112.806 319.85 112.965C319.646 113.124 319.362 113.203 319 113.203C318.592 113.203 318.263 113.101 318.014 112.897C317.764 112.67 317.56 112.353 317.402 111.945L314.886 106.131L316.246 106.845H301.626L303.02 106.131L300.538 111.945C300.334 112.376 300.118 112.693 299.892 112.897C299.665 113.101 299.37 113.203 299.008 113.203ZM308.936 92.2588L303.462 105.145L302.646 104.499H315.226L314.478 105.145L309.004 92.2588H308.936ZM330.441 113.203C329.988 113.203 329.636 113.078 329.387 112.829C329.16 112.557 329.047 112.194 329.047 111.741V90.4228C329.047 89.9468 329.172 89.5955 329.421 89.3688C329.67 89.1195 330.022 88.9948 330.475 88.9948H338.533C341.094 88.9948 343.066 89.6295 344.449 90.8988C345.832 92.1455 346.523 93.9135 346.523 96.2028C346.523 98.4695 345.832 100.238 344.449 101.507C343.066 102.776 341.094 103.411 338.533 103.411H331.835V111.741C331.835 112.194 331.722 112.557 331.495 112.829C331.268 113.078 330.917 113.203 330.441 113.203ZM331.835 101.065H338.193C340.029 101.065 341.412 100.657 342.341 99.8408C343.293 99.0022 343.769 97.7895 343.769 96.2028C343.769 94.5935 343.293 93.3808 342.341 92.5648C341.412 91.7262 340.029 91.3068 338.193 91.3068H331.835V101.065ZM362.364 113.203C361.911 113.203 361.559 113.078 361.31 112.829C361.083 112.557 360.97 112.183 360.97 111.707V100.555L361.582 102.493L353.048 90.7288C352.844 90.4342 352.742 90.1395 352.742 89.8448C352.765 89.5275 352.889 89.2668 353.116 89.0628C353.343 88.8588 353.637 88.7568 354 88.7568C354.317 88.7568 354.601 88.8362 354.85 88.9948C355.099 89.1308 355.326 89.3575 355.53 89.6748L362.772 99.6708H362.058L369.3 89.6748C369.549 89.3348 369.787 89.0968 370.014 88.9608C370.241 88.8248 370.513 88.7568 370.83 88.7568C371.193 88.7568 371.476 88.8588 371.68 89.0628C371.884 89.2442 371.986 89.4935 371.986 89.8108C372.009 90.1055 371.907 90.4228 371.68 90.7628L363.18 102.493L363.758 100.555V111.707C363.758 112.704 363.293 113.203 362.364 113.203Z" fill="black"/>
</g>
<path d="M271.322 24.1816C279.306 18.7904 287.267 14.8851 293.714 12.9529C296.929 11.9896 299.853 11.4902 302.256 11.5915C304.622 11.6913 306.813 12.3982 308.041 14.2169L305.528 15.9137C305.091 15.2674 304.097 14.7045 302.128 14.6215C300.195 14.54 297.634 14.944 294.585 15.8579C288.504 17.6801 280.822 21.427 273.019 26.6954C265.217 31.9638 258.871 37.6889 254.908 42.6475C252.921 45.1342 251.589 47.3589 250.942 49.1819C250.283 51.0398 250.434 52.1722 250.87 52.8185L248.356 54.5159C247.128 52.6971 247.292 50.3999 248.084 48.1684C248.888 45.9019 250.444 43.3762 252.539 40.7546C256.741 35.4967 263.337 29.5727 271.322 24.1816Z" fill="#FEB145"/>
<path d="M122.834 46.0532C123.911 43.8133 126.6 42.8701 128.84 43.9468C131.079 45.0236 132.022 47.7119 130.945 49.9517L125.908 60.4312C124.831 62.671 122.143 63.6142 119.903 62.5376C117.663 61.4609 116.72 58.7726 117.797 56.5327L122.834 46.0532Z" fill="#005596"/>
<path d="M127.483 37.5717C127.034 37.4421 127.121 36.7735 127.589 36.7815C159.074 37.3217 168.164 46.3208 172.721 56.0507L172.966 56.5732L173.059 56.7851C173.958 58.9894 172.979 61.5355 170.799 62.5566C168.619 63.5776 166.037 62.6994 164.919 60.5976L164.816 60.3896L164.571 59.8681C161.208 52.6871 149.623 43.9599 127.483 37.5717Z" fill="#005596"/>
<path d="M140.708 8.86626C142.686 4.7519 148.494 4.71682 150.551 8.7227L150.647 8.91606L155.605 19.504L155.698 19.7159C156.597 21.9202 155.618 24.4662 153.438 25.4874C151.187 26.541 148.508 25.5708 147.454 23.3204L145.624 19.4131L141.57 27.8467C140.777 29.4981 139.272 30.6963 137.484 31.0999L131.43 32.4673C130.618 32.6505 129.951 31.8207 130.304 31.0675L140.708 8.86626Z" fill="#005596"/>
<path d="M330.53 63.2059C328.984 63.2059 327.784 62.7792 326.93 61.9259C326.13 61.0726 325.73 59.8459 325.73 58.2459V10.6459C325.73 8.99255 326.13 7.73921 326.93 6.88588C327.784 5.97921 328.877 5.52588 330.21 5.52588C331.437 5.52588 332.344 5.76588 332.93 6.24588C333.57 6.67255 334.317 7.41921 335.17 8.48588L365.81 48.2459H363.73V10.4059C363.73 8.85921 364.13 7.65921 364.93 6.80588C365.784 5.95255 366.984 5.52588 368.53 5.52588C370.077 5.52588 371.25 5.95255 372.05 6.80588C372.85 7.65921 373.25 8.85921 373.25 10.4059V58.4059C373.25 59.8992 372.877 61.0726 372.13 61.9259C371.384 62.7792 370.37 63.2059 369.09 63.2059C367.864 63.2059 366.877 62.9659 366.13 62.4859C365.437 62.0059 364.664 61.2325 363.81 60.1659L333.25 20.4059H335.25V58.2459C335.25 59.8459 334.85 61.0726 334.05 61.9259C333.25 62.7792 332.077 63.2059 330.53 63.2059Z" fill="#005596"/>
<path d="M278.198 63.3657C272.758 63.3657 267.985 62.1657 263.878 59.7657C259.825 57.3657 256.678 54.0057 254.438 49.6857C252.198 45.3124 251.078 40.1924 251.078 34.3257C251.078 29.8991 251.718 25.9257 252.998 22.4057C254.278 18.8324 256.091 15.7924 258.438 13.2857C260.838 10.7257 263.691 8.77906 266.998 7.44572C270.358 6.05906 274.091 5.36572 278.198 5.36572C283.691 5.36572 288.465 6.56572 292.518 8.96572C296.571 11.3124 299.718 14.6457 301.958 18.9657C304.198 23.2857 305.318 28.3791 305.318 34.2457C305.318 38.6724 304.678 42.6724 303.398 46.2457C302.118 49.8191 300.278 52.8857 297.878 55.4457C295.531 58.0057 292.678 59.9791 289.318 61.3657C286.011 62.6991 282.305 63.3657 278.198 63.3657ZM278.198 54.5657C281.665 54.5657 284.598 53.7657 286.998 52.1657C289.451 50.5657 291.318 48.2457 292.598 45.2057C293.931 42.1657 294.598 38.5391 294.598 34.3257C294.598 27.9257 293.158 22.9657 290.278 19.4457C287.451 15.9257 283.425 14.1657 278.198 14.1657C274.785 14.1657 271.851 14.9657 269.398 16.5657C266.945 18.1124 265.051 20.4057 263.718 23.4457C262.438 26.4324 261.798 30.0591 261.798 34.3257C261.798 40.6724 263.238 45.6324 266.118 49.2057C268.998 52.7791 273.025 54.5657 278.198 54.5657Z" fill="white"/>
<path d="M278.198 63.3657C272.758 63.3657 267.985 62.1657 263.878 59.7657C259.825 57.3657 256.678 54.0057 254.438 49.6857C252.198 45.3124 251.078 40.1924 251.078 34.3257C251.078 29.8991 251.718 25.9257 252.998 22.4057C254.278 18.8324 256.091 15.7924 258.438 13.2857C260.838 10.7257 263.691 8.77906 266.998 7.44572C270.358 6.05906 274.091 5.36572 278.198 5.36572C283.691 5.36572 288.465 6.56572 292.518 8.96572C296.571 11.3124 299.718 14.6457 301.958 18.9657C304.198 23.2857 305.318 28.3791 305.318 34.2457C305.318 38.6724 304.678 42.6724 303.398 46.2457C302.118 49.8191 300.278 52.8857 297.878 55.4457C295.531 58.0057 292.678 59.9791 289.318 61.3657C286.011 62.6991 282.305 63.3657 278.198 63.3657ZM278.198 54.5657C281.665 54.5657 284.598 53.7657 286.998 52.1657C289.451 50.5657 291.318 48.2457 292.598 45.2057C293.931 42.1657 294.598 38.5391 294.598 34.3257C294.598 27.9257 293.158 22.9657 290.278 19.4457C287.451 15.9257 283.425 14.1657 278.198 14.1657C274.785 14.1657 271.851 14.9657 269.398 16.5657C266.945 18.1124 265.051 20.4057 263.718 23.4457C262.438 26.4324 261.798 30.0591 261.798 34.3257C261.798 40.6724 263.238 45.6324 266.118 49.2057C268.998 52.7791 273.025 54.5657 278.198 54.5657Z" fill="#F37735"/>
<path d="M216.58 63.3657C210.713 63.3657 205.673 62.1924 201.46 59.8457C197.3 57.4457 194.1 54.0857 191.86 49.7657C189.62 45.3924 188.5 40.2457 188.5 34.3257C188.5 29.8991 189.14 25.9257 190.42 22.4057C191.7 18.8324 193.54 15.7924 195.94 13.2857C198.34 10.7257 201.273 8.77906 204.74 7.44572C208.26 6.05906 212.207 5.36572 216.58 5.36572C219.513 5.36572 222.393 5.73906 225.22 6.48572C228.047 7.23239 230.527 8.29906 232.66 9.68572C233.78 10.3791 234.527 11.2324 234.9 12.2457C235.273 13.2057 235.353 14.1657 235.14 15.1257C234.927 16.0324 234.473 16.8057 233.78 17.4457C233.14 18.0857 232.313 18.4591 231.3 18.5657C230.34 18.6191 229.273 18.2724 228.1 17.5257C226.447 16.4591 224.66 15.6857 222.74 15.2057C220.82 14.7257 218.873 14.4857 216.9 14.4857C213.113 14.4857 209.913 15.2591 207.3 16.8057C204.687 18.3524 202.713 20.5924 201.38 23.5257C200.047 26.4591 199.38 30.0591 199.38 34.3257C199.38 38.5391 200.047 42.1391 201.38 45.1257C202.713 48.1124 204.687 50.3791 207.3 51.9257C209.913 53.4724 213.113 54.2457 216.9 54.2457C218.927 54.2457 220.927 54.0057 222.9 53.5257C224.873 52.9924 226.74 52.1924 228.5 51.1257C229.673 50.4324 230.713 50.1391 231.62 50.2457C232.58 50.2991 233.38 50.6191 234.02 51.2057C234.66 51.7924 235.087 52.5391 235.3 53.4457C235.513 54.2991 235.46 55.2057 235.14 56.1657C234.82 57.0724 234.18 57.8724 233.22 58.5657C231.087 60.1124 228.527 61.3124 225.54 62.1657C222.607 62.9657 219.62 63.3657 216.58 63.3657Z" fill="#005596"/>
<path d="M70.7017 62.566C68.9417 62.566 67.5817 62.1127 66.6217 61.206C65.7151 60.246 65.2617 58.886 65.2617 57.126V11.606C65.2617 9.84602 65.7151 8.51268 66.6217 7.60602C67.5817 6.64602 68.9417 6.16602 70.7017 6.16602H99.2617C100.595 6.16602 101.608 6.51268 102.302 7.20602C103.048 7.89935 103.422 8.88602 103.422 10.166C103.422 11.4993 103.048 12.5393 102.302 13.286C101.608 13.9793 100.595 14.326 99.2617 14.326H75.1017V29.846H97.5017C98.8884 29.846 99.9284 30.1927 100.622 30.886C101.315 31.5794 101.662 32.5927 101.662 33.926C101.662 35.2594 101.315 36.2727 100.622 36.966C99.9284 37.6594 98.8884 38.006 97.5017 38.006H75.1017V54.406H99.2617C100.595 54.406 101.608 54.7527 102.302 55.446C103.048 56.1393 103.422 57.1527 103.422 58.486C103.422 59.8193 103.048 60.8327 102.302 61.526C101.608 62.2193 100.595 62.566 99.2617 62.566H70.7017Z" fill="#005596"/>
<path d="M5.62359 62.566C3.86359 62.566 2.50359 62.1127 1.54359 61.206C0.636927 60.246 0.183594 58.886 0.183594 57.126V11.606C0.183594 9.84602 0.636927 8.51268 1.54359 7.60602C2.50359 6.64602 3.86359 6.16602 5.62359 6.16602H24.8236C28.7703 6.16602 32.1303 6.75268 34.9036 7.92602C37.6769 9.09935 39.7836 10.7794 41.2236 12.966C42.7169 15.1527 43.4636 17.766 43.4636 20.806C43.4636 24.2193 42.4769 27.0993 40.5036 29.446C38.5303 31.7927 35.8369 33.366 32.4236 34.166V32.966C36.3703 33.5527 39.4369 35.046 41.6236 37.446C43.8103 39.846 44.9036 42.966 44.9036 46.806C44.9036 51.8193 43.1969 55.7127 39.7836 58.486C36.4236 61.206 31.7303 62.566 25.7036 62.566H5.62359ZM10.0236 54.806H24.4236C28.0503 54.806 30.7169 54.1127 32.4236 52.726C34.1303 51.286 34.9836 49.1527 34.9836 46.326C34.9836 43.446 34.1303 41.3127 32.4236 39.926C30.7169 38.5394 28.0503 37.846 24.4236 37.846H10.0236V54.806ZM10.0236 30.086H23.0636C26.5836 30.086 29.1969 29.4193 30.9036 28.086C32.6636 26.6993 33.5436 24.6727 33.5436 22.006C33.5436 19.3394 32.6636 17.3393 30.9036 16.006C29.1969 14.6193 26.5836 13.926 23.0636 13.926H10.0236V30.086Z" fill="#005596"/>
<circle cx="278.198" cy="34.3657" r="22.1602" fill="white"/>
<circle cx="278.198" cy="34.3657" r="22.1602" fill="#F37735"/>
<path d="M310.972 15.0646C310.972 17.3565 309.114 19.2146 306.822 19.2146C304.53 19.2146 302.672 17.3565 302.672 15.0646C302.672 12.7726 304.53 10.9146 306.822 10.9146C309.114 10.9146 310.972 12.7726 310.972 15.0646Z" fill="#FEB145"/>
<path d="M253.762 53.6661C253.762 55.9581 251.904 57.8161 249.612 57.8161C247.32 57.8161 245.462 55.9581 245.462 53.6661C245.462 51.3741 247.32 49.5161 249.612 49.5161C251.904 49.5161 253.762 51.3741 253.762 53.6661Z" fill="#FEB145"/>
<path d="M278.198 42.6274C277.717 42.6274 277.346 42.4963 277.084 42.234C276.821 41.9499 276.69 41.5674 276.69 41.0866V35.7099H271.412C270.953 35.7099 270.592 35.5897 270.33 35.3493C270.068 35.087 269.937 34.7264 269.937 34.2674C269.937 33.8084 270.068 33.4587 270.33 33.2183C270.592 32.956 270.953 32.8248 271.412 32.8248H276.69V27.6121C276.69 27.1313 276.821 26.7597 277.084 26.4974C277.346 26.2351 277.728 26.104 278.231 26.104C278.712 26.104 279.072 26.2351 279.313 26.4974C279.575 26.7597 279.706 27.1313 279.706 27.6121V32.8248H284.985C285.465 32.8248 285.826 32.956 286.067 33.2183C286.329 33.4587 286.46 33.8084 286.46 34.2674C286.46 34.7264 286.329 35.087 286.067 35.3493C285.826 35.5897 285.465 35.7099 284.985 35.7099H279.706V41.0866C279.706 41.5674 279.575 41.9499 279.313 42.234C279.072 42.4963 278.701 42.6274 278.198 42.6274Z" fill="white"/>
<path d="M250.869 52.8183C251.306 53.4647 252.3 54.0275 254.269 54.1106C256.202 54.192 258.763 53.7879 261.812 52.8742C267.893 51.0519 275.575 47.3054 283.377 42.0372C291.18 36.7688 297.526 31.0432 301.489 26.0845C303.476 23.5979 304.808 21.3731 305.455 19.5501C306.114 17.6922 305.963 16.5599 305.527 15.9135L308.04 14.2167C309.268 16.0355 309.105 18.3321 308.313 20.5636C307.509 22.8301 305.953 25.3558 303.858 27.9774C299.657 33.2354 293.059 39.159 285.074 44.5502C277.09 49.9412 269.13 53.8469 262.683 55.7791C259.468 56.7425 256.544 57.2419 254.141 57.1406C251.775 57.0408 249.584 56.3345 248.355 54.5156L250.869 52.8183Z" fill="#FEB145"/>
</svg>
