<svg xmlns="http://www.w3.org/2000/svg" width="579" height="659" viewBox="0 0 579 659" fill="none">
<g clip-path="url(#clip0_1054_132)">
<g filter="url(#filter0_f_1054_132)">
<circle cx="289.5" cy="33.5" r="19.5" fill="#FFD857"/>
</g>
<path d="M484.559 511.522L484.493 511.389C483.493 509.498 482.444 507.174 481.328 504.719C479.363 500.404 477.347 495.941 474.982 492.356C470.635 485.785 464.157 480.26 458.444 475.381C456.129 473.406 455.479 471.913 455.113 469.855C453.181 459.186 451.982 446.624 450.683 433.316C449.65 422.53 448.567 411.379 447.002 399.565C445.436 387.783 442.338 378.988 439.34 370.476C435.776 360.354 432.412 350.796 432.229 337.205C432.162 331.929 431.946 315.866 431.896 308.498C431.829 298.243 430.913 294.178 429.131 283.309C427.499 273.336 424.384 251.532 424.367 251.317C424.001 248.446 423.801 244.862 423.601 241.095C423.135 232.582 422.602 222.925 419.754 216.055C415.99 206.945 409.644 198.101 400.85 191.878C390.774 184.759 377.117 181.275 369.888 179.848C367.823 179.433 365.791 178.703 363.859 177.674C353.2 171.949 337.844 166.589 328.684 163.387C327.135 162.856 325.786 162.374 324.67 161.976C323.587 161.594 322.871 160.499 322.871 159.255V136.986C333.314 129.37 340.625 117.206 342.607 104.064C346.538 77.8959 345.589 60.6053 345.589 59.7424C345.589 24.2154 318.724 2.59381 291.709 1.73093C291.543 1.71434 291.343 1.68115 291.126 1.68115H291.01H290.81C290.643 1.68115 290.46 1.68115 290.293 1.68115C290.06 1.68115 289.894 1.68115 289.727 1.68115H289.028C288.795 1.68115 288.628 1.68115 288.445 1.68115C288.212 1.68115 288.045 1.68115 287.878 1.68115H287.545C287.329 1.68115 287.146 1.69775 286.979 1.73093C259.981 2.59381 233.1 24.2154 233.1 59.759C233.1 60.0577 232.85 78.344 236.064 103.965C237.697 116.941 245.025 129.154 255.801 136.986V159.255C255.801 160.499 255.085 161.594 254.002 161.976C252.886 162.374 251.52 162.856 249.988 163.387C240.828 166.589 225.472 171.949 214.812 177.674C212.88 178.703 210.848 179.449 208.783 179.848C201.538 181.291 187.898 184.759 177.821 191.878C169.027 198.101 162.682 206.945 158.918 216.055C156.07 222.925 155.537 232.582 155.07 241.095C154.854 244.878 154.671 248.446 154.288 251.383C154.271 251.549 151.156 273.353 149.524 283.326C147.742 294.195 146.826 298.26 146.759 308.515C146.709 315.883 146.493 331.945 146.426 337.222C146.243 350.796 142.879 360.37 139.315 370.492C136.317 379.005 133.219 387.8 131.653 399.581C130.088 411.412 129.005 422.563 127.972 433.349C126.69 446.657 125.474 459.219 123.559 469.888C123.192 471.946 122.543 473.44 120.228 475.414C114.515 480.293 108.036 485.835 103.689 492.39C101.324 495.974 99.2922 500.438 97.3436 504.752C96.2277 507.208 95.1784 509.514 94.1791 511.423L94.1125 511.555L94.0458 511.705C93.2464 513.613 92.1305 516.218 93.6628 518.558C95.1451 520.831 97.9598 520.898 99.0257 520.914H99.2423C103.423 520.914 106.554 518.508 108.702 516.102C108.319 517.131 107.92 518.209 107.487 519.354C105.621 524.316 102.24 533.359 100.458 538.155C99.8085 539.881 99.3755 541.059 99.2922 541.291L99.2423 541.424L99.2089 541.557C98.6427 543.482 98.5427 546.385 99.8918 548.758C100.758 550.285 102.14 551.38 103.789 551.812C104.505 551.994 105.205 552.094 105.904 552.094C107.52 552.094 109.652 551.579 111.617 549.472C111.484 550.136 111.384 550.633 111.351 550.965C110.718 557.536 113.982 559.644 116.847 560.258C117.463 560.39 118.096 560.457 118.695 560.457C122.21 560.457 125.058 558.316 126.124 554.865C126.19 554.666 126.307 554.284 126.457 553.736C127.306 556.043 129.188 557.752 131.703 558.217C132.136 558.3 132.569 558.333 133.002 558.333C136.55 558.333 139.664 555.728 140.78 551.845C141.013 551.032 141.247 550.185 141.48 549.322C142.862 552.293 145.61 552.874 147.026 552.973C147.176 552.973 147.342 552.973 147.492 552.973C151.323 552.973 154.404 550.003 154.987 545.755C155.254 543.764 159.517 519.769 161.499 511.937C162.299 508.801 163.115 504.038 163.365 501.068C163.731 496.704 163.831 493.004 163.681 489.751C163.514 486.217 163.181 478.866 164.097 474.784C166.129 465.69 170.676 454.639 175.506 442.924C182.784 425.285 191.012 405.273 191.912 387.932C191.961 387.119 191.995 386.223 192.045 385.261C192.611 373.429 193.81 352.123 201.238 318.753C204.303 304.997 205.136 297.629 205.602 291.009C205.785 291.556 205.852 292.17 205.852 293.033C205.852 301.131 209.299 315.086 212.331 327.399C214.296 335.397 216.161 342.947 216.361 346.149C216.828 354.081 217.061 364.917 217.294 375.404C217.427 381.096 217.544 386.472 217.694 391.384C218.327 411.529 214.063 437.149 211.515 452.449C211.015 455.419 210.599 457.941 210.299 459.899C206.551 484.69 202.204 522.64 207.467 565.667C211.814 619.729 220.175 649.084 225.172 665.644C227.187 672.298 228.636 677.11 228.836 680.595C229.152 685.955 229.102 690.037 228.669 692.742C228.403 694.401 228.02 696.708 227.57 699.412C225.821 709.916 223.173 725.78 223.04 732.417C222.54 755.25 226.138 774.598 230.302 793.15C232.05 800.916 233.849 808.947 235.498 818.124C235.731 819.434 236.447 821.99 237.513 825.873C240.894 838.102 249.905 870.593 245.508 879.338C240.811 888.697 235.531 895.068 231.284 900.179C226.121 906.385 222.057 911.297 222.257 917.818C222.44 923.859 229.952 926.381 253.169 928.173C256.067 928.389 258.965 928.455 261.763 928.521C264.578 928.588 267.226 928.637 269.558 928.853L270.257 928.92C272.739 929.152 275.554 929.417 278.102 929.417C280.9 929.417 282.949 929.102 284.564 928.438L284.697 928.372C286.096 927.791 287.895 927.044 289.377 925.418C290.826 927.028 292.592 927.758 293.974 928.322L294.224 928.422C295.84 929.085 297.872 929.401 300.653 929.401C303.151 929.401 305.933 929.135 308.364 928.92L309.13 928.853C311.462 928.637 314.11 928.588 316.925 928.521C319.723 928.455 322.621 928.405 325.519 928.173C348.72 926.381 356.231 923.875 356.431 917.818C356.631 911.297 352.567 906.385 347.404 900.179C343.157 895.068 337.877 888.697 333.18 879.338C328.784 870.593 337.794 838.102 341.175 825.873C342.241 822.006 342.957 819.451 343.19 818.124C344.839 808.931 346.654 800.916 348.387 793.15C352.55 774.598 356.165 755.25 355.648 732.417C355.498 725.78 352.867 709.916 351.118 699.412C350.668 696.724 350.285 694.401 350.019 692.742C349.602 690.037 349.536 685.955 349.852 680.595C350.052 677.094 351.518 672.298 353.516 665.644C358.513 649.084 366.857 619.729 371.221 565.667C376.501 522.64 372.137 484.69 368.389 459.899C368.09 457.941 367.673 455.402 367.174 452.449C364.625 437.149 360.362 411.529 360.995 391.384C361.145 386.455 361.261 381.096 361.394 375.404C361.627 364.917 361.877 354.081 362.327 346.149C362.51 342.88 364.426 335.098 366.441 326.868C369.439 314.605 372.836 300.716 372.836 293.033C372.836 292.17 372.903 291.573 373.053 291.058C373.553 297.646 374.385 305.014 377.45 318.77C384.895 352.14 386.077 373.446 386.644 385.277C386.693 386.24 386.727 387.136 386.777 387.949C387.676 405.289 395.92 425.285 403.182 442.94C408.012 454.656 412.559 465.707 414.591 474.8C415.507 478.882 415.174 486.233 415.007 489.768C414.857 493.02 414.957 496.721 415.324 501.085C415.574 504.055 416.39 508.817 417.189 511.953C419.188 519.786 423.435 543.78 423.701 545.771C424.284 550.019 427.365 552.99 431.196 552.99C431.346 552.99 431.512 552.99 431.662 552.99C433.078 552.89 435.826 552.326 437.209 549.339C437.442 550.202 437.675 551.048 437.908 551.861C439.024 555.744 442.155 558.349 445.686 558.349C446.119 558.349 446.552 558.316 446.985 558.233C449.5 557.752 451.382 556.06 452.232 553.753C452.381 554.284 452.498 554.666 452.565 554.881C453.647 558.333 456.495 560.473 459.993 560.473C460.609 560.473 461.225 560.407 461.842 560.274C464.706 559.66 467.971 557.553 467.338 550.982C467.304 550.65 467.221 550.152 467.071 549.488C469.053 551.596 471.185 552.11 472.784 552.11C473.467 552.11 474.183 552.011 474.899 551.828C476.531 551.397 477.914 550.318 478.796 548.775C480.146 546.385 480.029 543.498 479.479 541.573L479.446 541.44L479.396 541.308C479.313 541.075 478.88 539.897 478.23 538.172C476.448 533.376 473.067 524.316 471.202 519.371C470.769 518.226 470.369 517.147 469.986 516.119C472.134 518.508 475.266 520.931 479.446 520.931H479.663C480.728 520.914 483.543 520.848 485.025 518.574C486.541 516.235 485.442 513.629 484.642 511.721L484.576 511.572L484.559 511.522ZM239.662 103.483C236.431 77.7466 236.78 59.7259 236.78 59.7259C236.78 26.1236 262.113 6.0121 287.312 5.33176C287.379 5.33176 287.445 5.29857 287.529 5.29857C287.612 5.29857 287.712 5.29857 287.795 5.29857C288.012 5.29857 288.195 5.29857 288.378 5.29857C288.561 5.29857 288.745 5.29857 288.928 5.29857C289.061 5.29857 289.144 5.29857 289.244 5.29857C289.477 5.29857 289.577 5.29857 289.661 5.29857C289.877 5.29857 290.06 5.29857 290.244 5.29857C290.427 5.29857 290.61 5.29857 290.793 5.29857C290.91 5.29857 291.01 5.29857 291.093 5.29857C291.16 5.29857 291.243 5.33176 291.309 5.33176C316.509 6.0121 341.841 26.1236 341.841 59.7259C341.841 59.7259 342.89 77.282 338.96 103.483C337.011 116.46 329.6 127.611 318.974 135.177C315.826 137.417 312.362 139.259 308.947 141.035C306.066 142.528 303.035 144.254 299.887 145.117C296.04 146.179 282.615 146.179 278.768 145.117C275.137 144.105 271.623 142.064 268.325 140.305C262.196 137.019 256.1 133.236 251.37 128.108C246.923 123.28 243.459 117.505 241.444 111.266C240.628 108.744 240.045 106.138 239.712 103.5L239.662 103.483ZM290.044 873.198C290.044 877.446 290.01 881.81 289.061 886.805C288.162 882.308 288.195 877.877 288.212 873.596C288.212 871.223 288.245 868.767 288.095 866.345C287.928 863.524 287.762 860.919 287.612 858.413C287.012 848.838 286.529 841.255 286.529 829.357C286.529 820.214 286.813 812.814 287.395 806.077C288.012 799.074 288.711 789.533 289.278 779.593C289.844 789.433 290.527 798.891 291.143 805.844C291.742 812.714 292.042 820.264 292.042 828.943C292.042 843.18 291.409 850.913 290.81 858.396C290.593 860.968 290.393 863.64 290.21 866.511C290.06 868.751 290.06 871.024 290.044 873.215V873.198ZM286.962 644.819C287.995 636.224 288.728 627.197 289.261 617.937C289.794 627.097 290.543 636.024 291.576 644.587C291.543 646.827 291.459 658.758 292.708 672.165C293.525 681.01 293.208 689.821 291.742 698.317C290.71 704.291 289.894 710.729 289.294 717.732C288.678 710.679 287.862 704.208 286.829 698.201C285.414 689.987 285.064 681.425 285.813 672.746C286.563 664.084 286.729 655.057 286.829 649.648C286.863 647.507 286.912 645.3 286.979 644.802L286.962 644.819ZM479.563 517.214C479.563 517.214 479.463 517.214 479.413 517.214C474.183 517.214 470.919 511.273 469.836 509.697C469.07 508.568 463.823 499.259 461.708 498.762C461.675 498.762 461.642 498.762 461.608 498.762C459.493 498.762 466.422 517.131 467.737 520.615C470.286 527.352 475.599 541.673 475.932 542.552C476.531 544.593 476.132 547.68 473.95 548.26C473.55 548.36 473.167 548.426 472.784 548.426C471.118 548.426 469.703 547.381 468.47 545.174C467.105 542.751 459.293 521.545 457.711 517.396C457.594 517.081 457.278 516.898 456.945 516.898C456.845 516.898 456.728 516.915 456.628 516.948L455.063 517.479C454.68 517.612 454.463 517.994 454.58 518.375C455.896 522.706 463.357 548.277 463.657 551.297C463.973 554.616 463.291 556.192 461.042 556.674C460.676 556.756 460.309 556.79 459.959 556.79C458.161 556.79 456.662 555.777 456.029 553.77C455.346 551.596 448.101 526.125 446.685 521.312C446.569 520.931 446.202 520.682 445.786 520.682C445.703 520.682 445.636 520.682 445.553 520.715L443.854 520.964C443.354 521.063 443.038 521.511 443.154 521.976C444.07 525.975 448.301 545.274 448.984 549.953C449.3 552.193 448.351 554.251 446.269 554.649C446.069 554.682 445.853 554.699 445.653 554.699C443.804 554.699 442.055 553.172 441.406 550.866C438.391 540.345 435.71 524.946 435.21 522.142C435.16 521.827 434.893 521.561 434.544 521.511L432.562 521.279C432.562 521.279 432.445 521.279 432.395 521.279C431.912 521.279 431.579 521.677 431.612 522.159C431.896 526.755 434.261 539.416 434.327 544.859C434.377 547.912 433.411 549.239 431.379 549.372C431.296 549.372 431.229 549.372 431.146 549.372C429.231 549.372 427.615 547.746 427.282 545.307C426.999 543.266 422.735 519.089 420.687 511.091C419.97 508.303 419.171 503.69 418.921 500.836C418.521 496.057 418.488 492.638 418.605 489.983C418.805 485.619 419.088 478.501 418.105 474.054C412.859 450.557 391.807 415.66 390.374 387.816C389.791 376.665 389.059 354.347 380.964 318.023C376.834 299.538 376.85 290.278 376.184 285.002C376.251 284.819 376.317 284.637 376.367 284.471C377.633 280.306 377.766 276.854 378.016 274.514C378.199 272.175 378.383 270.88 378.383 270.88C378.466 270.349 378.133 269.818 377.583 269.686C377 269.536 376.417 269.885 376.267 270.449C376.267 270.466 375.901 271.826 375.468 274.183C375.018 276.522 374.652 279.891 373.436 283.492C372.786 285.35 371.937 287.142 370.621 288.818C369.339 290.494 367.573 291.938 365.541 293.133C363.51 294.327 361.178 295.223 358.713 295.887C357.464 296.219 356.215 296.518 354.965 296.75L352.967 297.082C352.367 297.181 351.668 297.264 351.018 297.347C345.755 298.011 340.376 298.194 335.379 298.044C332.881 297.961 330.449 297.862 328.167 297.646C325.886 297.447 323.737 297.132 321.772 296.833C317.824 296.219 314.643 295.34 312.478 294.576C311.379 294.195 310.596 293.83 310.046 293.581C309.48 293.299 309.164 293.149 309.164 293.149C308.747 292.933 308.231 293.066 307.948 293.464C307.648 293.896 307.765 294.477 308.181 294.775C308.181 294.775 308.464 294.975 308.981 295.323C309.547 295.688 310.413 296.202 311.512 296.733C313.727 297.862 317.058 299.023 321.122 299.953C323.154 300.434 325.386 300.766 327.751 301.064C330.116 301.346 332.614 301.595 335.212 301.695C340.392 301.877 345.938 301.761 351.468 301.064C352.167 300.965 352.817 300.882 353.566 300.749L355.582 300.384C356.981 300.102 358.363 299.77 359.695 299.388C362.377 298.592 364.975 297.513 367.307 296.07C367.89 295.705 368.439 295.323 368.989 294.925C368.14 308.449 359.029 337.786 358.563 345.95C357.847 358.163 357.664 377.113 357.214 391.284C356.448 415.793 362.843 448.549 364.642 460.463C369.289 491.228 372.237 526.307 367.44 565.319C361.261 642.197 346.838 667.387 346.072 680.413C345.772 685.374 345.755 690.02 346.271 693.339C347.521 701.321 351.684 724.469 351.851 732.517C352.55 764.343 345.072 786.264 339.443 817.51C338.377 823.4 323.521 868.568 329.766 880.997C340.092 901.573 352.934 907.978 352.634 917.719C352.6 918.914 351.368 919.909 349.303 920.755C347.987 921.286 346.505 920.473 346.221 919.096C346.022 918.183 345.705 917.287 345.139 916.408C344.623 915.611 343.64 914.317 342.84 914.699C342.041 915.064 342.491 916.474 342.641 916.939C343.007 918.067 343.007 919.544 342.94 920.706C342.874 921.768 342.074 922.631 341.025 922.813C340.425 922.913 339.809 923.012 339.176 923.095C337.594 923.328 336.145 922.232 335.862 920.656C335.679 919.627 335.346 918.615 334.713 917.636C334.196 916.839 333.23 915.562 332.414 915.927C331.615 916.292 332.065 917.702 332.215 918.167C332.581 919.279 332.581 920.789 332.498 921.983C332.431 923.095 331.565 923.991 330.449 924.107C329.766 924.174 329.1 924.224 328.4 924.29C326.802 924.423 325.319 923.294 325.119 921.718C324.936 920.224 324.536 918.781 323.637 917.37C323.037 916.424 321.872 914.915 320.956 915.329C320.356 915.611 320.289 916.458 320.772 917.935C321.089 918.914 321.189 920.108 321.189 921.237C321.189 923.211 319.623 924.854 317.641 924.887C316.659 924.904 315.676 924.92 314.727 924.954C312.878 925.003 311.312 923.626 311.079 921.801C310.796 919.528 310.146 917.752 309.83 915.628C309.347 912.392 305.716 912.392 305.25 915.628C305.05 916.972 305.483 917.52 305.916 918.748C307.099 922.149 304.55 925.75 300.936 925.783C300.82 925.783 300.686 925.783 300.57 925.783C298.588 925.783 296.806 925.601 295.557 925.086C293.125 924.074 290.91 923.327 290.377 918.665C290.277 916.242 290.343 913.504 290.377 913.504C290.56 909.123 291.143 894.322 292.309 889.128C294.291 880.383 293.408 873.563 293.858 866.776C294.574 855.675 295.706 848.291 295.706 828.893C295.706 820.43 295.323 811.984 294.624 803.554C293.191 786.513 291.309 752.048 291.826 736.914C292.425 719.209 293.908 707.427 295.273 699.412C296.806 690.419 297.239 681.259 296.373 672.182C295.29 660.716 295.157 649.382 295.24 644.454C289.344 596.249 292.825 534.421 292.409 490.349C292.708 490.349 293.008 490.349 293.325 490.332C306.682 489.751 308.764 478.816 308.797 478.7C308.881 478.252 308.614 477.804 308.164 477.671C307.731 477.538 307.248 477.737 307.065 478.152C304.117 484.458 296.04 486.93 292.375 486.93H286.196C282.166 486.98 274.088 484.093 271.523 478.169C271.34 477.737 270.874 477.522 270.424 477.654C269.974 477.787 269.708 478.235 269.791 478.683C269.808 478.799 271.906 489.735 285.264 490.315C285.58 490.315 285.897 490.332 286.18 490.332C285.763 534.421 289.078 596.664 283.365 644.438C283.132 646.445 283.282 659.787 282.182 672.497C281.416 681.342 281.749 690.236 283.248 698.997C284.631 707.012 286.146 718.91 286.763 736.914C287.279 751.965 285.414 786.181 283.998 803.272C283.398 810.507 282.899 822.372 282.899 829.623C282.899 844.673 283.698 853.136 284.481 866.61C284.881 873.563 283.948 880.698 285.697 888.497C287.062 894.554 287.479 908.874 287.829 912.376C287.862 915.893 288.295 918.648 287.346 921.967C286.363 923.792 284.797 924.389 283.115 925.086C281.866 925.601 280.067 925.783 278.052 925.783C277.919 925.783 277.769 925.783 277.636 925.783C274.021 925.734 271.473 922.149 272.656 918.748C273.089 917.52 273.505 916.972 273.322 915.628C272.856 912.376 269.225 912.376 268.742 915.628C268.425 917.735 267.776 919.528 267.493 921.801C267.259 923.643 265.694 925.003 263.845 924.954C262.879 924.937 261.913 924.904 260.93 924.887C258.949 924.837 257.383 923.211 257.383 921.237C257.383 920.108 257.483 918.914 257.799 917.935C258.266 916.458 258.199 915.611 257.616 915.329C256.683 914.915 255.534 916.424 254.935 917.37C254.035 918.781 253.635 920.224 253.452 921.734C253.252 923.327 251.77 924.456 250.171 924.306C249.488 924.24 248.805 924.19 248.123 924.124C247.007 924.024 246.141 923.128 246.074 922C245.991 920.805 246.007 919.295 246.357 918.183C246.507 917.719 246.957 916.325 246.157 915.943C245.341 915.562 244.375 916.856 243.859 917.652C243.226 918.631 242.893 919.644 242.71 920.673C242.427 922.249 240.978 923.344 239.395 923.112C238.762 923.012 238.146 922.929 237.547 922.83C236.497 922.664 235.698 921.784 235.631 920.722C235.565 919.577 235.565 918.084 235.931 916.956C236.081 916.491 236.531 915.097 235.731 914.715C234.915 914.334 233.932 915.628 233.433 916.424C232.867 917.304 232.55 918.2 232.35 919.113C232.05 920.49 230.568 921.303 229.269 920.772C227.204 919.942 225.971 918.947 225.938 917.735C225.638 907.978 238.479 901.59 248.806 881.014C255.051 868.585 240.178 823.417 239.129 817.526C233.499 786.28 226.005 764.36 226.721 732.533C226.904 724.469 231.051 701.321 232.3 693.356C232.817 690.037 232.783 685.391 232.5 680.429C231.734 667.403 217.311 642.214 211.132 565.335C206.335 526.324 209.299 491.245 213.93 460.48C215.728 448.582 222.124 415.826 221.358 391.301C220.925 377.13 220.725 358.18 220.009 345.967C219.526 337.786 210.399 308.913 209.583 294.941C210.132 295.34 210.682 295.721 211.265 296.086C213.597 297.53 216.195 298.625 218.876 299.405C220.209 299.787 221.591 300.119 222.99 300.401L225.005 300.766C225.738 300.898 226.404 300.981 227.104 301.081C232.633 301.794 238.18 301.894 243.359 301.712C245.957 301.612 248.456 301.363 250.821 301.081C253.186 300.782 255.418 300.45 257.45 299.969C261.513 299.04 264.844 297.878 267.06 296.75C268.159 296.219 269.025 295.705 269.591 295.34C270.124 294.974 270.391 294.792 270.391 294.792C270.774 294.526 270.907 294.012 270.707 293.581C270.474 293.116 269.908 292.917 269.425 293.166C269.425 293.166 269.125 293.315 268.542 293.597C267.992 293.846 267.209 294.211 266.11 294.593C263.962 295.356 260.764 296.252 256.817 296.85C254.851 297.132 252.703 297.464 250.421 297.663C248.139 297.878 245.724 297.978 243.209 298.061C238.196 298.21 232.833 298.011 227.57 297.364C226.921 297.281 226.238 297.198 225.622 297.099L223.623 296.767C222.374 296.534 221.125 296.236 219.876 295.904C217.411 295.223 215.079 294.327 213.047 293.149C211.015 291.971 209.266 290.511 207.967 288.835C206.651 287.159 205.802 285.367 205.152 283.508C203.937 279.907 203.57 276.539 203.12 274.199C202.687 271.843 202.321 270.482 202.321 270.482C202.171 269.935 201.655 269.586 201.105 269.669C200.506 269.752 200.106 270.3 200.189 270.897C200.189 270.897 200.389 272.191 200.556 274.531C200.805 276.871 200.939 280.322 202.204 284.487C202.254 284.653 202.338 284.852 202.388 285.018C201.721 290.279 201.738 299.521 197.608 318.04C189.513 354.347 188.78 376.682 188.197 387.833C186.765 415.677 165.696 450.557 160.467 474.07C159.467 478.534 159.767 485.636 159.967 490C160.084 492.655 160.05 496.073 159.65 500.852C159.417 503.706 158.601 508.336 157.885 511.124C155.836 519.139 151.573 543.316 151.29 545.34C150.956 547.779 149.341 549.405 147.426 549.405C147.359 549.405 147.276 549.405 147.192 549.405C145.177 549.273 144.211 547.945 144.244 544.892C144.328 539.449 146.693 526.788 146.959 522.192C146.993 521.711 146.643 521.312 146.16 521.312C146.11 521.312 146.06 521.312 145.993 521.312L144.011 521.545C143.662 521.611 143.395 521.86 143.345 522.175C142.862 524.996 140.181 540.378 137.149 550.899C136.483 553.189 134.751 554.732 132.902 554.732C132.702 554.732 132.486 554.715 132.286 554.682C130.221 554.284 129.255 552.226 129.571 549.986C130.237 545.307 134.485 526.008 135.401 522.009C135.501 521.545 135.184 521.097 134.701 520.997L133.002 520.748C133.002 520.748 132.852 520.715 132.769 520.715C132.353 520.715 131.986 520.964 131.87 521.346C130.454 526.158 123.209 551.629 122.526 553.803C121.893 555.811 120.394 556.823 118.596 556.823C118.246 556.823 117.879 556.79 117.513 556.707C115.265 556.225 114.582 554.649 114.898 551.33C115.198 548.31 122.659 522.723 123.975 518.408C124.092 518.043 123.875 517.662 123.492 517.512L121.927 516.981C121.827 516.948 121.727 516.932 121.61 516.932C121.277 516.932 120.977 517.114 120.844 517.429C119.262 521.578 111.45 542.785 110.085 545.207C108.852 547.414 107.437 548.46 105.771 548.46C105.388 548.46 105.005 548.41 104.605 548.294C102.423 547.713 102.024 544.643 102.623 542.585C102.956 541.706 108.269 527.386 110.818 520.649C112.133 517.164 119.062 498.795 116.947 498.795C116.913 498.795 116.88 498.795 116.847 498.795C114.715 499.293 109.485 508.602 108.719 509.73C107.636 511.306 104.389 517.247 99.1423 517.247C99.0924 517.247 99.0424 517.247 98.9924 517.247C95.9445 517.18 96.0112 516.201 97.3269 513.115C100.142 507.822 103.123 499.757 106.67 494.397C110.601 488.44 116.38 483.446 122.526 478.185C125.557 475.597 126.573 473.357 127.073 470.519C130.554 451.287 131.637 426.911 135.201 400.046C138.598 374.458 149.657 362.843 150.007 337.272C150.107 330.253 150.29 315.584 150.34 308.548C150.407 298.16 151.373 294.178 153.055 283.923C154.721 273.801 157.835 251.848 157.835 251.848C159.068 242.173 158.401 226.658 162.215 217.449C165.913 208.521 171.925 200.457 179.853 194.865C187.731 189.289 198.124 186.054 205.169 184.361C205.202 184.361 205.219 184.361 205.252 184.361C205.252 184.361 205.652 184.344 206.352 184.295C207.034 184.278 208.017 184.245 209.183 184.195C211.531 184.145 214.712 184.195 217.927 184.195C221.141 184.195 224.372 184.129 226.787 183.996C229.202 183.83 230.801 183.73 230.801 183.73C231.517 183.681 232.084 183.067 232.05 182.353C232.017 181.623 231.401 181.059 230.668 181.092C230.668 181.092 224.339 181.374 218.01 181.059C217.427 181.042 216.828 181.009 216.245 180.976C216.311 180.943 216.395 180.91 216.461 180.86C228.669 174.322 247.506 168.132 255.151 165.378C257.683 164.465 259.382 162.009 259.382 159.222C259.382 154.277 259.382 144.918 259.382 139.409C265.111 143.043 274.338 147.706 277.702 148.635C279.917 149.249 284.581 149.547 289.244 149.547C293.908 149.547 298.571 149.249 300.786 148.635C304.151 147.706 313.378 143.043 319.107 139.409C319.107 144.918 319.107 154.277 319.107 159.222C319.107 162.009 320.806 164.465 323.337 165.378C330.982 168.116 349.819 174.305 362.027 180.86C362.094 180.893 362.177 180.926 362.244 180.976C361.661 181.009 361.078 181.026 360.478 181.059C354.149 181.374 347.82 181.092 347.82 181.092C347.088 181.059 346.471 181.606 346.421 182.337C346.371 183.067 346.921 183.697 347.654 183.747C347.654 183.747 349.269 183.847 351.668 184.013C354.083 184.145 357.314 184.228 360.528 184.212C363.743 184.212 366.924 184.145 369.272 184.212C370.438 184.245 371.421 184.278 372.104 184.311C372.803 184.344 373.203 184.378 373.203 184.378C380.365 186.07 390.741 189.306 398.619 194.865C406.546 200.473 412.559 208.538 416.256 217.449C420.07 226.658 419.388 242.157 420.637 251.848C420.637 251.848 423.751 273.801 425.417 283.923C427.099 294.178 428.065 298.16 428.132 308.548C428.181 315.584 428.381 330.253 428.465 337.272C428.814 362.843 439.857 374.475 443.271 400.046C446.852 426.911 447.934 451.27 451.399 470.519C451.915 473.357 452.931 475.597 455.946 478.185C462.108 483.446 467.871 488.44 471.801 494.397C475.349 499.757 478.33 507.805 481.145 513.115C482.461 516.218 482.527 517.18 479.479 517.247L479.563 517.214Z" fill="#D2BA91"/>
<path opacity="0.4" d="M140.031 482.699C139.615 482.649 139.215 482.948 139.098 483.363C136.417 492.971 129.238 499.177 124.075 503.026C123.692 503.309 123.592 503.84 123.842 504.238C124.009 504.52 124.308 504.669 124.625 504.669C124.775 504.669 124.908 504.636 125.058 504.57C125.341 504.42 132.186 500.786 136.717 495.51C141.863 489.519 140.93 483.695 140.88 483.446C140.814 483.031 140.447 482.716 140.014 482.683L140.031 482.699Z" fill="#D2BA91"/>
<path opacity="0.4" d="M439.49 483.379C439.374 482.964 438.974 482.665 438.558 482.715C438.125 482.731 437.775 483.047 437.691 483.478C437.642 483.727 436.709 489.551 441.855 495.542C446.385 500.819 453.231 504.436 453.514 504.602C453.647 504.668 453.797 504.702 453.947 504.702C454.247 504.702 454.546 504.552 454.73 504.27C454.98 503.872 454.88 503.341 454.497 503.059C449.333 499.209 442.155 493.003 439.474 483.395L439.49 483.379Z" fill="#D2BA91"/>
<path d="M289.295 396.094C286.247 396.094 283.798 397.554 283.798 399.363C283.798 401.172 286.263 402.632 289.295 402.632C292.326 402.632 294.807 401.172 294.807 399.363C294.807 397.554 292.342 396.094 289.295 396.094Z" fill="#D2BA91"/>
<rect x="115" y="566" width="371" height="93" fill="url(#paint0_linear_1054_132)"/>
<g opacity="0.25" filter="url(#filter1_f_1054_132)">
<path d="M253.5 134L279 147.5H300.5L315 140.5L324.5 134L333 124L339.5 112L342 94L343.5 74L343 51.5L338 32.5L322 14L299 4.5H280.5L257 14L244 28.5L236 47.5L235 73L239 112L253.5 134Z" fill="#D2BA91"/>
</g>
</g>
<defs>
<filter id="filter0_f_1054_132" x="265" y="9" width="49" height="49" filterUnits="userSpaceOnUse" color-interpolation-filters="sRGB">
<feFlood flood-opacity="0" result="BackgroundImageFix"/>
<feBlend mode="normal" in="SourceGraphic" in2="BackgroundImageFix" result="shape"/>
<feGaussianBlur stdDeviation="2.5" result="effect1_foregroundBlur_1054_132"/>
</filter>
<filter id="filter1_f_1054_132" x="215" y="-15.5" width="148.5" height="183" filterUnits="userSpaceOnUse" color-interpolation-filters="sRGB">
<feFlood flood-opacity="0" result="BackgroundImageFix"/>
<feBlend mode="normal" in="SourceGraphic" in2="BackgroundImageFix" result="shape"/>
<feGaussianBlur stdDeviation="10" result="effect1_foregroundBlur_1054_132"/>
</filter>
<linearGradient id="paint0_linear_1054_132" x1="300.5" y1="659" x2="300.5" y2="566" gradientUnits="userSpaceOnUse">
<stop stop-color="#fafafa"/>
<stop offset="1" stop-color="#fafafa" stop-opacity="0"/>
</linearGradient>
<clipPath id="clip0_1054_132">
<rect width="579" height="659" fill="#fafafa"/>
</clipPath>
</defs>
</svg>