<svg width="579" height="659" viewBox="0 0 579 659" fill="none" xmlns="http://www.w3.org/2000/svg">
<g clip-path="url(#clip0_93_25)">
<rect width="579" height="659" fill="#FAFAFA"/>
<g filter="url(#filter0_f_93_25)">
<path d="M289.5 48C300.27 48 309 39.2696 309 28.5C309 17.7304 300.27 9 289.5 9C278.73 9 270 17.7304 270 28.5C270 39.2696 278.73 48 289.5 48Z" fill="#FFD857"/>
</g>
<g filter="url(#filter1_f_93_25)">
<path d="M289.5 167C300.27 167 309 158.27 309 147.5C309 136.73 300.27 128 289.5 128C278.73 128 270 136.73 270 147.5C270 158.27 278.73 167 289.5 167Z" fill="#FFD857"/>
</g>
<path d="M484.559 511.522L484.492 511.389C483.493 509.497 482.444 507.174 481.328 504.718C479.363 500.404 477.347 495.94 474.982 492.356C470.635 485.785 464.157 480.259 458.444 475.381C456.129 473.406 455.479 471.913 455.113 469.855C453.181 459.185 451.982 446.624 450.683 433.316C449.65 422.53 448.567 411.379 447.002 399.564C445.436 387.783 442.338 378.988 439.34 370.475C435.776 360.353 432.412 350.795 432.229 337.205C432.162 331.928 431.945 315.866 431.896 308.498C431.829 298.243 430.913 294.178 429.131 283.309C427.499 273.336 424.384 251.532 424.367 251.316C424.001 248.446 423.801 244.861 423.601 241.095C423.135 232.582 422.602 222.924 419.754 216.055C415.99 206.945 409.644 198.1 400.85 191.878C390.774 184.759 377.117 181.274 369.888 179.847C367.823 179.432 365.791 178.702 363.859 177.673C353.2 171.949 337.844 166.589 328.684 163.386C327.135 162.855 325.786 162.374 324.67 161.976C323.587 161.594 322.871 160.499 322.871 159.255V136.986C333.314 129.369 340.625 117.206 342.607 104.064C346.538 77.8957 345.589 60.6051 345.589 59.7422C345.589 24.2151 318.724 2.59356 291.709 1.73069C291.543 1.7141 291.343 1.68091 291.126 1.68091H291.01H290.81C290.643 1.68091 290.46 1.68091 290.293 1.68091C290.06 1.68091 289.894 1.68091 289.727 1.68091H289.028C288.794 1.68091 288.628 1.68091 288.445 1.68091C288.212 1.68091 288.045 1.68091 287.878 1.68091H287.545C287.329 1.68091 287.146 1.6975 286.979 1.73069C259.981 2.59356 233.1 24.2151 233.1 59.7588C233.1 60.0575 232.85 78.3437 236.064 103.964C237.697 116.941 245.025 129.154 255.801 136.986V159.255C255.801 160.499 255.084 161.594 254.002 161.976C252.886 162.374 251.52 162.855 249.988 163.386C240.828 166.589 225.472 171.949 214.812 177.673C212.88 178.702 210.848 179.449 208.783 179.847C201.538 181.291 187.898 184.759 177.821 191.878C169.027 198.1 162.682 206.945 158.918 216.055C156.07 222.924 155.537 232.582 155.07 241.095C154.854 244.878 154.671 248.446 154.287 251.383C154.271 251.549 151.156 273.353 149.524 283.326C147.742 294.194 146.826 298.26 146.759 308.515C146.709 315.882 146.493 331.945 146.426 337.222C146.243 350.795 142.879 360.37 139.315 370.492C136.317 379.005 133.219 387.799 131.653 399.581C130.088 411.412 129.005 422.563 127.972 433.349C126.69 446.657 125.474 459.219 123.559 469.888C123.192 471.946 122.543 473.439 120.228 475.414C114.515 480.293 108.036 485.835 103.689 492.389C101.324 495.974 99.2922 500.437 97.3435 504.752C96.2276 507.207 95.1784 509.514 94.1791 511.422L94.1124 511.555L94.0458 511.704C93.2464 513.613 92.1305 516.218 93.6627 518.558C95.1451 520.831 97.9598 520.897 99.0257 520.914H99.2422C103.423 520.914 106.554 518.508 108.702 516.102C108.319 517.13 107.92 518.209 107.487 519.354C105.621 524.316 102.24 533.359 100.458 538.155C99.8085 539.88 99.3755 541.059 99.2922 541.291L99.2422 541.424L99.2089 541.556C98.6426 543.481 98.5427 546.385 99.8918 548.758C100.758 550.285 102.14 551.38 103.789 551.811C104.505 551.994 105.205 552.093 105.904 552.093C107.52 552.093 109.652 551.579 111.617 549.472C111.484 550.135 111.384 550.633 111.351 550.965C110.718 557.536 113.982 559.643 116.847 560.257C117.463 560.39 118.096 560.457 118.695 560.457C122.21 560.457 125.058 558.316 126.124 554.865C126.19 554.665 126.307 554.284 126.457 553.736C127.306 556.043 129.188 557.752 131.703 558.216C132.136 558.299 132.569 558.333 133.002 558.333C136.55 558.333 139.664 555.727 140.78 551.844C141.013 551.031 141.247 550.185 141.48 549.322C142.862 552.292 145.61 552.873 147.026 552.973C147.176 552.973 147.342 552.973 147.492 552.973C151.323 552.973 154.404 550.003 154.987 545.755C155.253 543.763 159.517 519.769 161.499 511.937C162.299 508.8 163.115 504.038 163.365 501.068C163.731 496.704 163.831 493.003 163.681 489.751C163.514 486.216 163.181 478.865 164.097 474.783C166.129 465.69 170.676 454.639 175.506 442.924C182.784 425.284 191.012 405.272 191.911 387.932C191.961 387.119 191.995 386.223 192.045 385.26C192.611 373.429 193.81 352.123 201.238 318.753C204.303 304.997 205.136 297.629 205.602 291.008C205.785 291.556 205.852 292.17 205.852 293.033C205.852 301.131 209.299 315.086 212.331 327.398C214.296 335.396 216.161 342.947 216.361 346.149C216.828 354.081 217.061 364.917 217.294 375.404C217.427 381.095 217.544 386.472 217.694 391.384C218.327 411.528 214.063 437.149 211.515 452.448C211.015 455.419 210.599 457.941 210.299 459.899C206.551 484.69 202.204 522.64 207.467 565.667C211.814 619.729 220.175 649.083 225.172 665.644C227.187 672.298 228.636 677.11 228.836 680.595C229.152 685.955 229.102 690.037 228.669 692.741C228.403 694.401 228.02 696.707 227.57 699.412C225.821 709.916 223.173 725.779 223.04 732.417C222.54 755.25 226.138 774.598 230.302 793.15C232.05 800.916 233.849 808.947 235.498 818.123C235.731 819.434 236.447 821.99 237.513 825.873C240.894 838.102 249.905 870.593 245.508 879.337C240.811 888.696 235.531 895.068 231.284 900.179C226.121 906.385 222.057 911.297 222.257 917.818C222.44 923.858 229.952 926.38 253.169 928.173C256.067 928.388 258.965 928.455 261.763 928.521C264.578 928.587 267.226 928.637 269.558 928.853L270.257 928.919C272.739 929.152 275.554 929.417 278.102 929.417C280.9 929.417 282.949 929.102 284.564 928.438L284.697 928.372C286.096 927.791 287.895 927.044 289.377 925.418C290.826 927.028 292.592 927.758 293.974 928.322L294.224 928.421C295.84 929.085 297.872 929.401 300.653 929.401C303.151 929.401 305.933 929.135 308.364 928.919L309.13 928.853C311.462 928.637 314.11 928.587 316.925 928.521C319.723 928.455 322.621 928.405 325.519 928.173C348.72 926.38 356.231 923.875 356.431 917.818C356.631 911.297 352.567 906.385 347.404 900.179C343.157 895.068 337.877 888.696 333.18 879.337C328.784 870.593 337.794 838.102 341.175 825.873C342.241 822.006 342.957 819.451 343.19 818.123C344.839 808.93 346.654 800.916 348.387 793.15C352.55 774.598 356.165 755.25 355.648 732.417C355.498 725.779 352.867 709.916 351.118 699.412C350.668 696.724 350.285 694.401 350.019 692.741C349.602 690.037 349.536 685.955 349.852 680.595C350.052 677.094 351.518 672.298 353.516 665.644C358.513 649.083 366.857 619.729 371.221 565.667C376.501 522.64 372.137 484.69 368.389 459.899C368.09 457.941 367.673 455.402 367.174 452.448C364.625 437.149 360.362 411.528 360.995 391.384C361.144 386.455 361.261 381.095 361.394 375.404C361.627 364.917 361.877 354.081 362.327 346.149C362.51 342.88 364.426 335.098 366.441 326.867C369.439 314.605 372.836 300.716 372.836 293.033C372.836 292.17 372.903 291.573 373.053 291.058C373.553 297.646 374.385 305.013 377.45 318.77C384.895 352.139 386.077 373.446 386.643 385.277C386.693 386.24 386.727 387.136 386.777 387.949C387.676 405.289 395.92 425.284 403.182 442.94C408.012 454.655 412.559 465.707 414.591 474.8C415.507 478.882 415.174 486.233 415.007 489.768C414.857 493.02 414.957 496.72 415.324 501.084C415.573 504.055 416.39 508.817 417.189 511.953C419.188 519.785 423.435 543.78 423.701 545.771C424.284 550.019 427.365 552.989 431.196 552.989C431.346 552.989 431.512 552.989 431.662 552.989C433.078 552.89 435.826 552.326 437.209 549.339C437.442 550.202 437.675 551.048 437.908 551.861C439.024 555.744 442.155 558.349 445.686 558.349C446.119 558.349 446.552 558.316 446.985 558.233C449.5 557.752 451.382 556.059 452.231 553.753C452.381 554.284 452.498 554.665 452.565 554.881C453.647 558.333 456.495 560.473 459.993 560.473C460.609 560.473 461.225 560.407 461.842 560.274C464.706 559.66 467.971 557.553 467.338 550.982C467.304 550.65 467.221 550.152 467.071 549.488C469.053 551.596 471.185 552.11 472.784 552.11C473.467 552.11 474.183 552.01 474.899 551.828C476.531 551.396 477.914 550.318 478.796 548.775C480.146 546.385 480.029 543.498 479.479 541.573L479.446 541.44L479.396 541.307C479.313 541.075 478.88 539.897 478.23 538.171C476.448 533.376 473.067 524.316 471.202 519.371C470.769 518.226 470.369 517.147 469.986 516.118C472.134 518.508 475.266 520.93 479.446 520.93H479.663C480.728 520.914 483.543 520.847 485.025 518.574C486.541 516.234 485.442 513.629 484.642 511.721L484.576 511.572L484.559 511.522ZM239.662 103.483C236.431 77.7463 236.78 59.7256 236.78 59.7256C236.78 26.1234 262.113 6.01186 287.312 5.33152C287.379 5.33152 287.445 5.29833 287.529 5.29833C287.612 5.29833 287.712 5.29833 287.795 5.29833C288.012 5.29833 288.195 5.29833 288.378 5.29833C288.561 5.29833 288.745 5.29833 288.928 5.29833C289.061 5.29833 289.144 5.29833 289.244 5.29833C289.477 5.29833 289.577 5.29833 289.661 5.29833C289.877 5.29833 290.06 5.29833 290.243 5.29833C290.427 5.29833 290.61 5.29833 290.793 5.29833C290.91 5.29833 291.01 5.29833 291.093 5.29833C291.16 5.29833 291.243 5.33152 291.309 5.33152C316.509 6.01186 341.841 26.1234 341.841 59.7256C341.841 59.7256 342.89 77.2817 338.96 103.483C337.011 116.459 329.6 127.61 318.974 135.177C315.826 137.417 312.362 139.259 308.947 141.035C306.066 142.528 303.035 144.254 299.887 145.117C296.039 146.179 282.615 146.179 278.768 145.117C275.137 144.104 271.623 142.063 268.325 140.305C262.196 137.019 256.1 133.236 251.37 128.108C246.923 123.279 243.459 117.505 241.444 111.266C240.628 108.743 240.045 106.138 239.712 103.5L239.662 103.483ZM290.044 873.198C290.044 877.446 290.01 881.81 289.061 886.805C288.162 882.308 288.195 877.877 288.212 873.596C288.212 871.223 288.245 868.767 288.095 866.345C287.928 863.524 287.762 860.918 287.612 858.413C287.012 848.838 286.529 841.255 286.529 829.357C286.529 820.214 286.813 812.813 287.395 806.076C288.012 799.074 288.711 789.532 289.277 779.593C289.844 789.433 290.527 798.891 291.143 805.844C291.742 812.714 292.042 820.264 292.042 828.942C292.042 843.18 291.409 850.912 290.81 858.396C290.593 860.968 290.393 863.64 290.21 866.51C290.06 868.751 290.06 871.024 290.044 873.214V873.198ZM286.962 644.819C287.995 636.223 288.728 627.196 289.261 617.937C289.794 627.097 290.543 636.024 291.576 644.587C291.543 646.827 291.459 658.758 292.708 672.165C293.525 681.01 293.208 689.821 291.742 698.317C290.71 704.291 289.894 710.729 289.294 717.732C288.678 710.679 287.862 704.208 286.829 698.201C285.413 689.987 285.064 681.424 285.813 672.746C286.563 664.084 286.729 655.057 286.829 649.648C286.862 647.507 286.912 645.3 286.979 644.802L286.962 644.819ZM479.563 517.213C479.563 517.213 479.463 517.213 479.413 517.213C474.183 517.213 470.919 511.273 469.836 509.696C469.07 508.568 463.823 499.259 461.708 498.761C461.675 498.761 461.642 498.761 461.608 498.761C459.493 498.761 466.422 517.13 467.737 520.615C470.286 527.352 475.599 541.673 475.932 542.552C476.531 544.593 476.132 547.679 473.95 548.26C473.55 548.36 473.167 548.426 472.784 548.426C471.118 548.426 469.703 547.381 468.47 545.174C467.105 542.751 459.293 521.544 457.711 517.396C457.594 517.081 457.278 516.898 456.945 516.898C456.845 516.898 456.728 516.915 456.628 516.948L455.063 517.479C454.68 517.612 454.463 517.993 454.58 518.375C455.896 522.706 463.357 548.277 463.657 551.297C463.973 554.616 463.29 556.192 461.042 556.673C460.676 556.756 460.309 556.789 459.959 556.789C458.161 556.789 456.662 555.777 456.029 553.769C455.346 551.596 448.101 526.124 446.685 521.312C446.569 520.93 446.202 520.682 445.786 520.682C445.703 520.682 445.636 520.682 445.553 520.715L443.854 520.964C443.354 521.063 443.038 521.511 443.154 521.976C444.07 525.975 448.301 545.273 448.984 549.953C449.3 552.193 448.351 554.251 446.269 554.649C446.069 554.682 445.853 554.699 445.653 554.699C443.804 554.699 442.055 553.172 441.406 550.865C438.391 540.345 435.71 524.946 435.21 522.142C435.16 521.826 434.893 521.561 434.544 521.511L432.562 521.279C432.562 521.279 432.445 521.279 432.395 521.279C431.912 521.279 431.579 521.677 431.612 522.158C431.896 526.755 434.261 539.416 434.327 544.859C434.377 547.912 433.411 549.239 431.379 549.372C431.296 549.372 431.229 549.372 431.146 549.372C429.231 549.372 427.615 547.746 427.282 545.307C426.999 543.266 422.735 519.089 420.687 511.09C419.97 508.303 419.171 503.69 418.921 500.835C418.521 496.056 418.488 492.638 418.605 489.983C418.805 485.619 419.088 478.5 418.105 474.053C412.859 450.557 391.807 415.66 390.374 387.816C389.791 376.665 389.058 354.346 380.964 318.023C376.834 299.538 376.85 290.278 376.184 285.001C376.251 284.819 376.317 284.636 376.367 284.47C377.633 280.305 377.766 276.854 378.016 274.514C378.199 272.175 378.383 270.88 378.383 270.88C378.466 270.349 378.133 269.818 377.583 269.685C377 269.536 376.417 269.885 376.267 270.449C376.267 270.465 375.901 271.826 375.468 274.182C375.018 276.522 374.652 279.891 373.436 283.491C372.786 285.35 371.937 287.142 370.621 288.818C369.339 290.494 367.573 291.938 365.541 293.132C363.509 294.327 361.178 295.223 358.713 295.887C357.464 296.219 356.215 296.517 354.965 296.75L352.967 297.082C352.367 297.181 351.668 297.264 351.018 297.347C345.755 298.011 340.375 298.193 335.379 298.044C332.881 297.961 330.449 297.862 328.167 297.646C325.885 297.447 323.737 297.131 321.772 296.833C317.824 296.219 314.643 295.339 312.478 294.576C311.379 294.194 310.596 293.829 310.046 293.58C309.48 293.298 309.164 293.149 309.164 293.149C308.747 292.933 308.231 293.066 307.948 293.464C307.648 293.896 307.765 294.476 308.181 294.775C308.181 294.775 308.464 294.974 308.981 295.323C309.547 295.688 310.413 296.202 311.512 296.733C313.727 297.862 317.058 299.023 321.122 299.952C323.154 300.434 325.386 300.765 327.751 301.064C330.116 301.346 332.614 301.595 335.212 301.695C340.392 301.877 345.938 301.761 351.468 301.064C352.167 300.965 352.817 300.882 353.566 300.749L355.582 300.384C356.981 300.102 358.363 299.77 359.695 299.388C362.377 298.592 364.975 297.513 367.307 296.069C367.89 295.704 368.439 295.323 368.989 294.924C368.14 308.448 359.029 337.786 358.563 345.95C357.847 358.163 357.664 377.113 357.214 391.284C356.448 415.793 362.843 448.549 364.642 460.463C369.289 491.228 372.237 526.307 367.44 565.319C361.261 642.197 346.838 667.386 346.072 680.412C345.772 685.374 345.755 690.02 346.271 693.339C347.521 701.32 351.684 724.469 351.851 732.516C352.55 764.343 345.072 786.263 339.443 817.509C338.377 823.4 323.52 868.568 329.766 880.997C340.092 901.573 352.933 907.978 352.634 917.719C352.6 918.913 351.368 919.909 349.303 920.755C347.987 921.286 346.505 920.473 346.221 919.096C346.022 918.183 345.705 917.287 345.139 916.408C344.623 915.611 343.64 914.317 342.84 914.699C342.041 915.064 342.491 916.474 342.641 916.939C343.007 918.067 343.007 919.544 342.94 920.706C342.874 921.767 342.074 922.63 341.025 922.813C340.425 922.912 339.809 923.012 339.176 923.095C337.594 923.327 336.145 922.232 335.862 920.656C335.679 919.627 335.346 918.615 334.713 917.636C334.196 916.839 333.23 915.561 332.414 915.927C331.615 916.292 332.065 917.702 332.214 918.167C332.581 919.278 332.581 920.788 332.498 921.983C332.431 923.095 331.565 923.991 330.449 924.107C329.766 924.174 329.1 924.223 328.4 924.29C326.802 924.422 325.319 923.294 325.119 921.718C324.936 920.224 324.536 918.781 323.637 917.37C323.037 916.424 321.872 914.914 320.956 915.329C320.356 915.611 320.289 916.457 320.772 917.934C321.089 918.913 321.189 920.108 321.189 921.237C321.189 923.211 319.623 924.854 317.641 924.887C316.659 924.904 315.676 924.92 314.727 924.953C312.878 925.003 311.312 923.626 311.079 921.801C310.796 919.527 310.146 917.752 309.83 915.628C309.347 912.392 305.716 912.392 305.25 915.628C305.05 916.972 305.483 917.519 305.916 918.747C307.098 922.149 304.55 925.75 300.936 925.783C300.82 925.783 300.686 925.783 300.57 925.783C298.588 925.783 296.806 925.601 295.556 925.086C293.125 924.074 290.91 923.327 290.377 918.664C290.277 916.242 290.343 913.504 290.377 913.504C290.56 909.123 291.143 894.321 292.309 889.128C294.291 880.383 293.408 873.563 293.858 866.776C294.574 855.675 295.706 848.291 295.706 828.893C295.706 820.43 295.323 811.984 294.624 803.554C293.191 786.512 291.309 752.047 291.826 736.914C292.425 719.208 293.908 707.427 295.273 699.412C296.806 690.418 297.239 681.259 296.373 672.182C295.29 660.716 295.157 649.382 295.24 644.454C289.344 596.249 292.825 534.421 292.409 490.348C292.708 490.348 293.008 490.348 293.325 490.332C306.682 489.751 308.764 478.816 308.797 478.699C308.881 478.251 308.614 477.803 308.164 477.671C307.731 477.538 307.248 477.737 307.065 478.152C304.117 484.458 296.039 486.93 292.375 486.93H286.196C282.166 486.98 274.088 484.092 271.523 478.168C271.34 477.737 270.874 477.521 270.424 477.654C269.974 477.787 269.708 478.235 269.791 478.683C269.808 478.799 271.906 489.734 285.264 490.315C285.58 490.315 285.896 490.332 286.18 490.332C285.763 534.421 289.078 596.664 283.365 644.437C283.132 646.445 283.282 659.786 282.182 672.497C281.416 681.342 281.749 690.236 283.248 698.997C284.631 707.012 286.146 718.91 286.763 736.914C287.279 751.964 285.413 786.18 283.998 803.272C283.398 810.507 282.899 822.371 282.899 829.623C282.899 844.673 283.698 853.136 284.481 866.61C284.881 873.563 283.948 880.698 285.697 888.497C287.062 894.554 287.479 908.874 287.828 912.375C287.862 915.893 288.295 918.648 287.345 921.967C286.363 923.792 284.797 924.389 283.115 925.086C281.866 925.601 280.067 925.783 278.052 925.783C277.919 925.783 277.769 925.783 277.636 925.783C274.021 925.733 271.473 922.149 272.656 918.747C273.089 917.519 273.505 916.972 273.322 915.628C272.856 912.375 269.225 912.375 268.742 915.628C268.425 917.735 267.776 919.527 267.493 921.801C267.259 923.643 265.694 925.003 263.845 924.953C262.879 924.937 261.913 924.904 260.93 924.887C258.948 924.837 257.383 923.211 257.383 921.237C257.383 920.108 257.483 918.913 257.799 917.934C258.266 916.457 258.199 915.611 257.616 915.329C256.683 914.914 255.534 916.424 254.935 917.37C254.035 918.781 253.635 920.224 253.452 921.734C253.252 923.327 251.77 924.456 250.171 924.306C249.488 924.24 248.805 924.19 248.123 924.124C247.007 924.024 246.141 923.128 246.074 922C245.991 920.805 246.007 919.295 246.357 918.183C246.507 917.719 246.957 916.325 246.157 915.943C245.341 915.561 244.375 916.856 243.859 917.652C243.226 918.631 242.893 919.643 242.71 920.672C242.427 922.249 240.978 923.344 239.395 923.112C238.762 923.012 238.146 922.929 237.547 922.829C236.497 922.664 235.698 921.784 235.631 920.722C235.565 919.577 235.565 918.084 235.931 916.955C236.081 916.491 236.531 915.097 235.731 914.715C234.915 914.333 233.932 915.628 233.433 916.424C232.866 917.304 232.55 918.2 232.35 919.112C232.05 920.49 230.568 921.303 229.269 920.772C227.204 919.942 225.971 918.946 225.938 917.735C225.638 907.978 238.479 901.589 248.805 881.013C255.051 868.585 240.178 823.417 239.129 817.526C233.499 786.28 226.005 764.36 226.721 732.533C226.904 724.469 231.051 701.32 232.3 693.355C232.817 690.037 232.783 685.39 232.5 680.429C231.734 667.403 217.311 642.214 211.132 565.335C206.335 526.323 209.299 491.244 213.93 460.48C215.728 448.582 222.124 415.826 221.358 391.301C220.925 377.13 220.725 358.18 220.009 345.967C219.526 337.786 210.399 308.913 209.583 294.941C210.132 295.339 210.682 295.721 211.265 296.086C213.596 297.53 216.195 298.625 218.876 299.405C220.209 299.786 221.591 300.118 222.99 300.4L225.005 300.765C225.738 300.898 226.404 300.981 227.104 301.081C232.633 301.794 238.179 301.894 243.359 301.711C245.957 301.612 248.456 301.363 250.821 301.081C253.186 300.782 255.418 300.45 257.449 299.969C261.513 299.04 264.844 297.878 267.06 296.75C268.159 296.219 269.025 295.704 269.591 295.339C270.124 294.974 270.391 294.792 270.391 294.792C270.774 294.526 270.907 294.012 270.707 293.58C270.474 293.116 269.908 292.917 269.425 293.166C269.425 293.166 269.125 293.315 268.542 293.597C267.992 293.846 267.209 294.211 266.11 294.593C263.962 295.356 260.764 296.252 256.817 296.849C254.851 297.131 252.703 297.463 250.421 297.662C248.139 297.878 245.724 297.978 243.209 298.061C238.196 298.21 232.833 298.011 227.57 297.364C226.921 297.281 226.238 297.198 225.622 297.098L223.623 296.766C222.374 296.534 221.125 296.235 219.875 295.904C217.411 295.223 215.079 294.327 213.047 293.149C211.015 291.971 209.266 290.511 207.967 288.835C206.651 287.159 205.802 285.367 205.152 283.508C203.937 279.907 203.57 276.539 203.12 274.199C202.687 271.843 202.321 270.482 202.321 270.482C202.171 269.934 201.655 269.586 201.105 269.669C200.506 269.752 200.106 270.299 200.189 270.897C200.189 270.897 200.389 272.191 200.556 274.531C200.805 276.871 200.939 280.322 202.204 284.487C202.254 284.653 202.338 284.852 202.388 285.018C201.721 290.278 201.738 299.521 197.608 318.039C189.513 354.346 188.78 376.682 188.197 387.833C186.765 415.677 165.696 450.557 160.467 474.07C159.467 478.534 159.767 485.636 159.967 490C160.083 492.655 160.05 496.073 159.65 500.852C159.417 503.706 158.601 508.336 157.885 511.124C155.836 519.138 151.573 543.315 151.29 545.34C150.956 547.779 149.341 549.405 147.426 549.405C147.359 549.405 147.276 549.405 147.192 549.405C145.177 549.272 144.211 547.945 144.244 544.892C144.328 539.449 146.693 526.788 146.959 522.192C146.993 521.71 146.643 521.312 146.16 521.312C146.11 521.312 146.06 521.312 145.993 521.312L144.011 521.544C143.662 521.611 143.395 521.86 143.345 522.175C142.862 524.996 140.181 540.378 137.149 550.899C136.483 553.189 134.751 554.732 132.902 554.732C132.702 554.732 132.486 554.715 132.286 554.682C130.221 554.284 129.255 552.226 129.571 549.986C130.237 545.307 134.485 526.008 135.401 522.009C135.5 521.544 135.184 521.096 134.701 520.997L133.002 520.748C133.002 520.748 132.852 520.715 132.769 520.715C132.353 520.715 131.986 520.964 131.87 521.345C130.454 526.157 123.209 551.629 122.526 553.803C121.893 555.81 120.394 556.823 118.596 556.823C118.246 556.823 117.879 556.789 117.513 556.706C115.264 556.225 114.582 554.649 114.898 551.33C115.198 548.31 122.659 522.723 123.975 518.408C124.092 518.043 123.875 517.661 123.492 517.512L121.927 516.981C121.827 516.948 121.727 516.931 121.61 516.931C121.277 516.931 120.977 517.114 120.844 517.429C119.262 521.578 111.45 542.784 110.085 545.207C108.852 547.414 107.437 548.459 105.771 548.459C105.388 548.459 105.005 548.41 104.605 548.293C102.423 547.713 102.024 544.643 102.623 542.585C102.956 541.706 108.269 527.385 110.818 520.648C112.133 517.164 119.062 498.794 116.947 498.794C116.913 498.794 116.88 498.794 116.847 498.794C114.715 499.292 109.485 508.601 108.719 509.73C107.636 511.306 104.389 517.247 99.1423 517.247C99.0923 517.247 99.0424 517.247 98.9924 517.247C95.9445 517.18 96.0111 516.201 97.3269 513.115C100.142 507.821 103.123 499.757 106.67 494.397C110.601 488.44 116.38 483.445 122.526 478.185C125.557 475.596 126.573 473.356 127.073 470.519C130.554 451.287 131.636 426.911 135.201 400.045C138.598 374.458 149.657 362.842 150.007 337.272C150.107 330.252 150.29 315.584 150.34 308.548C150.407 298.16 151.373 294.178 153.055 283.923C154.721 273.801 157.835 251.847 157.835 251.847C159.068 242.173 158.401 226.658 162.215 217.449C165.913 208.521 171.925 200.457 179.853 194.865C187.731 189.289 198.124 186.053 205.169 184.361C205.202 184.361 205.219 184.361 205.252 184.361C205.252 184.361 205.652 184.344 206.351 184.294C207.034 184.278 208.017 184.245 209.183 184.195C211.531 184.145 214.712 184.195 217.927 184.195C221.141 184.195 224.372 184.128 226.787 183.996C229.202 183.83 230.801 183.73 230.801 183.73C231.517 183.68 232.084 183.066 232.05 182.353C232.017 181.623 231.401 181.059 230.668 181.092C230.668 181.092 224.339 181.374 218.01 181.059C217.427 181.042 216.828 181.009 216.245 180.976C216.311 180.942 216.395 180.909 216.461 180.859C228.669 174.322 247.506 168.132 255.151 165.378C257.683 164.465 259.382 162.009 259.382 159.221C259.382 154.276 259.382 144.918 259.382 139.408C265.111 143.042 274.338 147.705 277.702 148.635C279.917 149.249 284.581 149.547 289.244 149.547C293.908 149.547 298.571 149.249 300.786 148.635C304.151 147.705 313.377 143.042 319.107 139.408C319.107 144.918 319.107 154.276 319.107 159.221C319.107 162.009 320.806 164.465 323.337 165.378C330.982 168.116 349.819 174.305 362.027 180.859C362.094 180.893 362.177 180.926 362.244 180.976C361.661 181.009 361.078 181.025 360.478 181.059C354.149 181.374 347.82 181.092 347.82 181.092C347.088 181.059 346.471 181.606 346.421 182.336C346.371 183.066 346.921 183.697 347.654 183.747C347.654 183.747 349.269 183.846 351.668 184.012C354.083 184.145 357.314 184.228 360.528 184.211C363.743 184.211 366.924 184.145 369.272 184.211C370.438 184.245 371.421 184.278 372.104 184.311C372.803 184.344 373.203 184.377 373.203 184.377C380.365 186.07 390.741 189.306 398.619 194.865C406.546 200.473 412.559 208.538 416.256 217.449C420.07 226.658 419.388 242.157 420.637 251.847C420.637 251.847 423.751 273.801 425.417 283.923C427.099 294.178 428.065 298.16 428.131 308.548C428.181 315.584 428.381 330.252 428.465 337.272C428.814 362.842 439.857 374.475 443.271 400.045C446.852 426.911 447.934 451.27 451.399 470.519C451.915 473.356 452.931 475.596 455.946 478.185C462.108 483.445 467.871 488.44 471.801 494.397C475.349 499.757 478.33 507.805 481.145 513.115C482.461 516.218 482.527 517.18 479.479 517.247L479.563 517.213Z" fill="#D2BA91"/>
<path opacity="0.4" d="M140.031 482.699C139.614 482.649 139.215 482.948 139.098 483.363C136.417 492.971 129.238 499.177 124.075 503.026C123.692 503.309 123.592 503.84 123.842 504.238C124.009 504.52 124.308 504.669 124.625 504.669C124.775 504.669 124.908 504.636 125.058 504.57C125.341 504.42 132.186 500.786 136.716 495.51C141.863 489.519 140.93 483.695 140.88 483.446C140.814 483.031 140.447 482.716 140.014 482.683L140.031 482.699Z" fill="#D2BA91"/>
<path opacity="0.4" d="M439.49 483.378C439.374 482.963 438.974 482.665 438.558 482.714C438.125 482.731 437.775 483.046 437.691 483.478C437.642 483.727 436.709 489.551 441.855 495.541C446.385 500.818 453.231 504.436 453.514 504.601C453.647 504.668 453.797 504.701 453.947 504.701C454.247 504.701 454.546 504.552 454.73 504.27C454.98 503.871 454.88 503.34 454.497 503.058C449.333 499.208 442.155 493.002 439.474 483.395L439.49 483.378Z" fill="#D2BA91"/>
<path d="M289.294 396.094C286.247 396.094 283.798 397.554 283.798 399.363C283.798 401.172 286.263 402.632 289.294 402.632C292.326 402.632 294.807 401.172 294.807 399.363C294.807 397.554 292.342 396.094 289.294 396.094Z" fill="#D2BA91"/>
<path d="M486 566H115V659H486V566Z" fill="url(#paint0_linear_93_25)"/>
<g opacity="0.25" filter="url(#filter2_f_93_25)">
<path d="M321 162H256.5L258 136.5L245.5 124.5L239 107.5L236 87L234.5 67L236 45L243.5 29L256.5 15L272 7L289.5 3L303.5 5L323 15L333.5 26L342 45L344.5 76L340.5 107.5L333.5 124.5L321 136.5V162Z" fill="#D2BA91"/>
</g>
</g>
<defs>
<filter id="filter0_f_93_25" x="265" y="4" width="49" height="49" filterUnits="userSpaceOnUse" color-interpolation-filters="sRGB">
<feFlood flood-opacity="0" result="BackgroundImageFix"/>
<feBlend mode="normal" in="SourceGraphic" in2="BackgroundImageFix" result="shape"/>
<feGaussianBlur stdDeviation="2.5" result="effect1_foregroundBlur_93_25"/>
</filter>
<filter id="filter1_f_93_25" x="265" y="123" width="49" height="49" filterUnits="userSpaceOnUse" color-interpolation-filters="sRGB">
<feFlood flood-opacity="0" result="BackgroundImageFix"/>
<feBlend mode="normal" in="SourceGraphic" in2="BackgroundImageFix" result="shape"/>
<feGaussianBlur stdDeviation="2.5" result="effect1_foregroundBlur_93_25"/>
</filter>
<filter id="filter2_f_93_25" x="214.5" y="-17" width="150" height="199" filterUnits="userSpaceOnUse" color-interpolation-filters="sRGB">
<feFlood flood-opacity="0" result="BackgroundImageFix"/>
<feBlend mode="normal" in="SourceGraphic" in2="BackgroundImageFix" result="shape"/>
<feGaussianBlur stdDeviation="10" result="effect1_foregroundBlur_93_25"/>
</filter>
<linearGradient id="paint0_linear_93_25" x1="300.5" y1="659" x2="300.5" y2="566" gradientUnits="userSpaceOnUse">
<stop stop-color="#FAFAFA"/>
<stop offset="1" stop-color="#FAFAFA" stop-opacity="0"/>
</linearGradient>
<clipPath id="clip0_93_25">
<rect width="579" height="659" fill="#fafafa"/>
</clipPath>
</defs>
</svg>
