<svg xmlns="http://www.w3.org/2000/svg" width="579" height="659" viewBox="0 0 579 659" fill="none">
<g clip-path="url(#clip0_580_4052)">
<g opacity="0.25" clip-path="url(#clip1_580_4052)">
<g filter="url(#filter0_f_580_4052)">
<path d="M278.429 144.498C282.281 145.565 295.719 145.565 299.57 144.498C302.721 143.614 305.756 141.896 308.64 140.395C312.058 138.611 315.526 136.76 318.677 134.509C329.314 126.904 336.733 115.698 338.684 102.657C342.618 76.3417 341.568 58.6815 341.568 58.6815C341.568 24.9287 316.226 4.71708 290.984 4.03335C290.917 4.03335 290.85 4 290.767 4C290.684 4 290.584 4 290.467 4C290.284 4 290.1 4 289.917 4C289.733 4 289.55 4 289.333 4C289.25 4 289.15 4 288.916 4C288.816 4 288.733 4 288.6 4C288.416 4 288.233 4 288.049 4C287.866 4 287.683 4 287.466 4C287.366 4 287.283 4 287.199 4C287.132 4 287.049 4.03335 286.982 4.03335C261.757 4.71708 236.398 24.9287 236.398 58.6982C236.398 58.6982 236.048 76.8086 239.283 102.674C239.616 105.325 240.2 107.943 241.017 110.478C243.051 116.748 246.502 122.552 250.953 127.404C255.688 132.574 261.79 136.376 267.926 139.662C271.227 141.429 274.745 143.48 278.379 144.498H278.429Z" fill="#D2BA91"/>
</g>
<g filter="url(#filter1_f_580_4052)">
<path d="M471.797 495.5C467.862 489.513 462.077 484.494 455.924 479.207C452.89 476.606 451.873 474.355 451.373 471.503C447.888 452.175 446.805 427.678 443.237 400.679C439.835 374.964 428.765 363.291 428.415 337.592C428.315 330.538 428.131 315.796 428.081 308.726C428.015 298.286 427.048 294.284 425.364 283.978C423.697 273.806 420.579 251.743 420.579 251.743C419.345 242.021 420.012 226.428 416.194 217.173C412.493 208.201 406.474 200.096 398.538 194.477C390.668 188.89 380.282 185.638 373.096 183.937C373.096 183.937 372.696 183.92 371.995 183.87C371.312 183.854 370.328 183.82 369.161 183.77C366.81 183.72 363.626 183.77 360.408 183.77C357.19 183.77 353.956 183.704 351.538 183.57C349.121 183.403 347.52 183.303 347.52 183.303C346.787 183.253 346.236 182.62 346.286 181.886C346.337 181.169 346.953 180.619 347.687 180.635C347.687 180.635 354.006 180.919 360.358 180.602C360.942 180.569 361.542 180.552 362.125 180.518C362.059 180.485 361.975 180.452 361.909 180.402C349.688 173.831 330.831 167.611 323.178 164.843C320.644 163.926 318.944 161.457 318.944 158.656C318.944 153.686 318.944 144.281 318.944 138.744C313.208 142.396 303.972 147.083 300.604 148.016C298.387 148.633 293.718 148.934 289.05 148.934C284.382 148.934 279.714 148.633 277.496 148.016C274.128 147.083 264.892 142.396 259.156 138.744C259.156 144.281 259.156 153.686 259.156 158.656C259.156 161.457 257.456 163.926 254.922 164.843C247.269 167.594 228.412 173.815 216.192 180.402C216.125 180.435 216.042 180.468 215.975 180.518C216.558 180.552 217.142 180.569 217.742 180.602C224.078 180.919 230.413 180.635 230.413 180.635C231.147 180.602 231.764 181.169 231.797 181.903C231.83 182.62 231.28 183.237 230.547 183.287C230.547 183.287 228.929 183.387 226.528 183.554C224.111 183.687 220.877 183.77 217.659 183.754C214.441 183.754 211.257 183.687 208.906 183.754C207.739 183.787 206.755 183.82 206.071 183.854C205.371 183.887 204.971 183.92 204.971 183.92C204.938 183.92 204.921 183.92 204.888 183.92C197.835 185.621 187.432 188.873 179.546 194.477C171.61 200.113 165.591 208.218 161.889 217.173C158.071 226.428 158.755 242.004 157.505 251.743C157.505 251.743 154.387 273.806 152.72 283.978C151.036 294.284 150.069 298.286 150.002 308.726C149.952 315.796 149.752 330.538 149.669 337.592C149.318 363.291 138.265 374.981 134.847 400.679C131.262 427.678 130.179 452.158 126.711 471.503C126.194 474.355 125.177 476.606 122.159 479.207C115.99 484.494 110.222 489.513 106.287 495.5C102.736 500.887 99.7513 508.975 96.9337 514.311C95.6166 517.429 95.5499 518.397 98.6009 518.463C98.651 518.463 98.701 518.463 98.751 518.463C103.986 518.463 107.254 512.493 108.338 510.909C109.105 509.775 114.356 500.42 116.474 499.919C116.507 499.919 116.54 499.919 116.574 499.919C118.691 499.919 111.755 518.38 110.438 521.882C107.887 528.653 102.569 543.044 102.236 543.928C101.635 545.979 102.035 549.081 104.22 549.665C104.62 549.765 105.02 549.831 105.387 549.831C107.054 549.831 108.471 548.781 109.705 546.563C111.072 544.128 118.891 522.816 120.475 518.647C120.592 518.33 120.909 518.146 121.242 518.146C121.342 518.146 121.459 518.163 121.559 518.197L123.126 518.73C123.51 518.864 123.726 519.247 123.61 519.631C122.292 523.983 114.823 549.681 114.523 552.716C114.206 556.052 114.89 557.636 117.141 558.12C117.507 558.203 117.874 558.236 118.224 558.236C120.025 558.236 121.526 557.219 122.159 555.201C122.843 553.017 130.095 527.419 131.512 522.582C131.629 522.199 131.996 521.949 132.413 521.949C132.496 521.949 132.563 521.949 132.646 521.982L134.347 522.232C134.847 522.332 135.164 522.783 135.047 523.249C134.13 527.268 129.895 546.663 129.212 551.366C128.895 553.617 129.845 555.685 131.929 556.085C132.129 556.118 132.346 556.135 132.546 556.135C134.397 556.135 136.147 554.601 136.797 552.283C139.815 541.71 142.499 526.234 143 523.416C143.05 523.099 143.316 522.833 143.667 522.783L145.651 522.549C145.651 522.549 145.767 522.549 145.817 522.549C146.301 522.549 146.634 522.949 146.601 523.433C146.317 528.052 143.95 540.776 143.883 546.246C143.833 549.314 144.8 550.649 146.834 550.782C146.918 550.782 146.984 550.782 147.068 550.782C148.985 550.782 150.602 549.148 150.936 546.696C151.219 544.645 155.487 520.348 157.538 512.31C158.255 509.508 159.055 504.872 159.305 501.987C159.705 497.184 159.739 493.749 159.622 491.081C159.422 486.695 159.139 479.541 160.122 475.072C165.374 451.458 186.448 416.388 187.882 388.405C188.465 377.199 189.199 354.769 197.302 318.265C201.436 299.671 201.42 290.382 202.087 285.079C202.02 284.895 201.953 284.712 201.903 284.545C200.636 280.359 200.503 276.891 200.253 274.539C200.069 272.188 199.886 270.887 199.886 270.887C199.803 270.287 200.203 269.737 200.803 269.653C201.353 269.57 201.87 269.92 202.02 270.47C202.02 270.47 202.387 271.838 202.82 274.206C203.27 276.557 203.637 279.942 204.854 283.561C205.505 285.429 206.355 287.23 207.672 288.914C208.956 290.599 210.723 292.049 212.757 293.25C214.791 294.451 217.125 295.351 219.593 296.018C220.843 296.352 222.094 296.652 223.344 296.886L225.345 297.219C225.945 297.319 226.645 297.403 227.295 297.486C232.564 298.153 237.949 298.336 242.951 298.186C245.452 298.103 247.886 298.003 250.17 297.786C252.454 297.586 254.605 297.269 256.572 296.969C260.524 296.352 263.708 295.468 265.875 294.701C266.976 294.317 267.759 293.951 268.31 293.7C268.876 293.417 269.193 293.267 269.193 293.267C269.66 293.033 270.227 293.217 270.477 293.684C270.694 294.117 270.544 294.634 270.16 294.901C270.16 294.901 269.877 295.101 269.36 295.451C268.793 295.818 267.926 296.335 266.826 296.869C264.608 298.003 261.274 299.17 257.206 300.104C255.172 300.588 252.938 300.921 250.57 301.221C248.203 301.505 245.702 301.755 243.101 301.855C237.916 302.039 232.364 301.922 226.829 301.221C226.128 301.121 225.478 301.038 224.728 300.905L222.71 300.538C221.31 300.254 219.926 299.921 218.592 299.537C215.908 298.737 213.307 297.653 210.973 296.202C210.39 295.835 209.839 295.451 209.289 295.051C210.106 309.093 219.259 338.109 219.726 346.331C220.443 358.604 220.626 377.649 221.077 391.89C221.844 416.521 215.441 449.44 213.641 461.414C208.989 492.332 206.038 527.585 210.84 566.791C217.025 644.052 231.464 669.367 232.23 682.458C232.531 687.444 232.547 692.114 232.03 695.449C230.78 703.47 226.612 726.733 226.445 734.821C225.745 766.807 233.231 788.836 238.866 820.237C239.933 826.157 254.805 871.55 248.569 884.041C238.233 904.719 225.378 911.156 225.678 920.945C225.712 922.146 226.945 923.147 229.013 923.997C230.33 924.531 231.814 923.714 232.097 922.33C232.297 921.412 232.614 920.512 233.181 919.628C233.698 918.828 234.681 917.527 235.482 917.91C236.282 918.277 235.832 919.695 235.682 920.162C235.315 921.296 235.315 922.78 235.382 923.947C235.448 925.015 236.248 925.882 237.299 926.065C237.899 926.165 238.516 926.265 239.149 926.349C240.733 926.582 242.184 925.465 242.467 923.897C242.651 922.863 242.984 921.846 243.618 920.862C244.135 920.062 245.102 918.761 245.918 919.144C246.719 919.511 246.269 920.929 246.119 921.396C245.768 922.513 245.752 924.031 245.835 925.231C245.902 926.349 246.769 927.249 247.886 927.366C248.569 927.433 249.236 927.483 249.937 927.549C251.537 927.683 253.021 926.549 253.221 924.964C253.404 923.447 253.805 921.996 254.705 920.579C255.305 919.628 256.455 918.094 257.389 918.527C257.989 918.811 258.056 919.661 257.573 921.146C257.256 922.129 257.156 923.33 257.156 924.464C257.156 926.449 258.723 928.1 260.707 928.133C261.691 928.15 262.674 928.183 263.625 928.2C265.475 928.25 267.042 926.866 267.276 925.031C267.559 922.746 268.21 920.962 268.526 918.828C269.01 915.576 272.644 915.576 273.111 918.828C273.311 920.178 272.878 920.729 272.444 921.963C271.261 925.381 273.811 928.983 277.429 929.033C277.563 929.033 277.713 929.033 277.846 929.033C279.864 929.033 281.648 928.85 282.915 928.333C284.599 927.633 286.149 927.032 287.149 925.198C288.1 921.879 287.65 919.094 287.633 915.559C287.283 912.04 286.866 897.649 285.499 891.562C283.732 883.724 284.682 876.536 284.282 869.566C283.498 856.025 282.715 847.536 282.698 832.394C282.698 825.09 283.198 813.183 283.798 805.912C285.232 788.736 287.083 754.349 286.566 739.224C285.949 721.114 284.432 709.173 283.048 701.119C281.547 692.314 281.214 683.392 281.981 674.487C283.081 661.713 282.915 648.305 283.165 646.287C288.9 598.293 285.582 535.74 285.982 491.414C285.699 491.414 285.399 491.414 285.065 491.398C271.694 490.814 269.61 479.824 269.577 479.708C269.493 479.241 269.777 478.807 270.21 478.674C270.66 478.54 271.127 478.757 271.311 479.191C273.878 485.144 281.981 488.046 285.999 487.996H292.184C295.852 487.996 303.939 485.511 306.89 479.174C307.09 478.757 307.556 478.54 307.99 478.69C308.423 478.824 308.707 479.274 308.623 479.724C308.607 479.841 306.506 490.831 293.135 491.414C292.818 491.414 292.501 491.431 292.218 491.431C292.635 535.723 289.15 597.842 295.052 646.304C294.969 651.257 295.102 662.663 296.186 674.17C297.036 683.292 296.619 692.497 295.085 701.536C293.718 709.59 292.234 721.43 291.634 739.224C291.117 754.433 293.001 789.086 294.435 806.196C295.135 814.667 295.519 823.156 295.519 831.661C295.519 851.155 294.385 858.576 293.668 869.733C293.235 876.553 294.102 883.39 292.118 892.195C290.951 897.415 290.367 912.29 290.184 916.693C290.15 916.693 290.1 919.445 290.184 921.879C290.717 926.565 292.918 927.333 295.369 928.333C296.619 928.85 298.403 929.033 300.387 929.033C300.504 929.033 300.637 929.033 300.754 929.033C304.372 929 306.923 925.381 305.739 921.963C305.306 920.729 304.872 920.178 305.072 918.828C305.539 915.559 309.174 915.559 309.657 918.828C309.974 920.945 310.624 922.746 310.908 925.031C311.141 926.882 312.708 928.25 314.559 928.2C315.526 928.183 316.493 928.15 317.477 928.133C319.461 928.083 321.028 926.449 321.028 924.464C321.028 923.33 320.928 922.129 320.611 921.146C320.144 919.661 320.194 918.811 320.794 918.527C321.711 918.111 322.878 919.628 323.479 920.579C324.379 921.996 324.779 923.447 324.962 924.948C325.163 926.549 326.646 927.683 328.247 927.533C328.931 927.466 329.614 927.416 330.298 927.349C331.415 927.249 332.282 926.349 332.348 925.215C332.432 924.014 332.415 922.496 332.065 921.379C331.915 920.912 331.465 919.511 332.265 919.128C333.082 918.761 334.049 920.045 334.566 920.845C335.199 921.829 335.533 922.846 335.716 923.88C336 925.465 337.45 926.565 339.034 926.332C339.668 926.232 340.284 926.148 340.885 926.048C341.935 925.882 342.735 924.998 342.802 923.931C342.869 922.78 342.869 921.279 342.502 920.145C342.352 919.678 341.902 918.277 342.702 917.894C343.502 917.51 344.486 918.811 345.003 919.611C345.57 920.495 345.886 921.396 346.086 922.313C346.387 923.697 347.87 924.514 349.171 923.981C351.238 923.147 352.472 922.146 352.505 920.929C352.805 911.123 339.951 904.703 329.614 884.024C323.362 871.534 338.25 826.141 339.317 820.221C344.953 788.819 352.455 766.79 351.738 734.805C351.555 726.7 347.404 703.437 346.153 695.432C345.636 692.097 345.67 687.427 345.953 682.441C346.72 669.35 361.158 644.036 367.344 566.775C372.145 527.569 369.178 492.315 364.543 461.397C362.742 449.44 356.34 416.521 357.107 391.874C357.54 377.632 357.74 358.588 358.457 346.314C358.941 338.109 368.044 308.626 368.894 295.035C368.361 295.435 367.794 295.818 367.21 296.185C364.876 297.636 362.275 298.737 359.591 299.52C358.257 299.904 356.874 300.238 355.473 300.521L353.456 300.888C352.722 301.021 352.055 301.105 351.355 301.205C345.82 301.922 340.268 302.022 335.083 301.838C332.482 301.738 329.981 301.488 327.613 301.205C325.246 300.905 323.012 300.571 320.978 300.087C316.91 299.154 313.559 297.986 311.358 296.852C310.257 296.319 309.39 295.802 308.824 295.435C308.29 295.068 308.023 294.884 308.023 294.884C307.59 294.584 307.49 294.001 307.773 293.567C308.04 293.167 308.573 293.05 308.99 293.25C308.99 293.25 309.29 293.4 309.874 293.684C310.424 293.934 311.208 294.301 312.308 294.684C314.459 295.451 317.66 296.352 321.611 296.952C323.579 297.236 325.729 297.569 328.014 297.769C330.298 297.986 332.732 298.086 335.233 298.17C340.251 298.32 345.62 298.12 350.888 297.469C351.538 297.386 352.222 297.302 352.839 297.202L354.839 296.869C356.09 296.635 357.34 296.335 358.591 296.002C361.058 295.318 363.392 294.417 365.426 293.233C367.46 292.049 369.211 290.582 370.512 288.898C371.829 287.213 372.679 285.412 373.329 283.545C374.546 279.926 374.913 276.541 375.363 274.189C375.797 271.821 376.163 270.454 376.163 270.437C376.314 269.853 376.914 269.52 377.481 269.67C378.014 269.82 378.364 270.337 378.281 270.871C378.281 270.871 378.081 272.171 377.914 274.523C377.664 276.874 377.531 280.343 376.264 284.528C376.214 284.695 376.13 284.895 376.08 285.062C376.747 290.348 376.747 299.654 380.865 318.248C388.968 354.736 389.701 377.182 390.285 388.388C391.719 416.371 412.809 451.425 418.045 475.055C419.045 479.541 418.745 486.678 418.545 491.064C418.428 493.732 418.461 497.168 418.862 501.97C419.095 504.839 419.912 509.492 420.629 512.276C422.68 520.331 426.948 544.628 427.231 546.663C427.565 549.114 429.182 550.749 431.099 550.749C431.182 550.749 431.249 550.749 431.333 550.749C433.35 550.615 434.317 549.281 434.284 546.213C434.2 540.743 431.833 528.019 431.566 523.4C431.533 522.916 431.883 522.516 432.35 522.516C432.4 522.516 432.45 522.516 432.516 522.516L434.5 522.749C434.85 522.816 435.117 523.066 435.167 523.383C435.651 526.218 438.335 541.677 441.369 552.25C442.036 554.551 443.77 556.102 445.621 556.102C445.821 556.102 446.038 556.085 446.238 556.052C448.305 555.651 449.272 553.584 448.955 551.332C448.288 546.63 444.037 527.235 443.12 523.216C443.02 522.749 443.337 522.299 443.82 522.199L445.521 521.949C445.521 521.949 445.671 521.915 445.754 521.915C446.171 521.915 446.538 522.165 446.655 522.549C448.072 527.385 455.324 552.983 456.008 555.168C456.641 557.186 458.142 558.203 459.942 558.203C460.293 558.203 460.659 558.17 461.026 558.086C463.277 557.603 463.96 556.018 463.644 552.683C463.344 549.648 455.874 523.933 454.557 519.597C454.441 519.23 454.657 518.847 455.041 518.697L456.608 518.163C456.708 518.13 456.808 518.113 456.925 518.113C457.258 518.113 457.558 518.297 457.692 518.613C459.276 522.783 467.095 544.095 468.462 546.53C469.696 548.747 471.113 549.798 472.78 549.798C473.164 549.798 473.547 549.748 473.947 549.631C476.131 549.048 476.531 545.963 475.931 543.895C475.598 543.011 470.279 528.619 467.728 521.849C466.411 518.347 459.476 499.886 461.593 499.886C461.626 499.886 461.66 499.886 461.693 499.886C463.827 500.386 469.062 509.742 469.829 510.876C470.913 512.46 474.164 518.43 479.416 518.43C479.466 518.43 479.516 518.43 479.566 518.43C482.617 518.363 482.55 517.379 481.233 514.278C478.415 508.958 475.431 500.853 471.88 495.467L471.797 495.5Z" fill="#D2BA91"/>
</g>
</g>
<g filter="url(#filter2_f_580_4052)">
<circle cx="255.5" cy="158.5" r="19.5" fill="#FFD857"/>
</g>
<g filter="url(#filter3_f_580_4052)">
<circle cx="235.5" cy="233.5" r="19.5" fill="#FFD857"/>
</g>
<g filter="url(#filter4_f_580_4052)">
<circle cx="341.5" cy="233.5" r="19.5" fill="#FFD857"/>
</g>
<g filter="url(#filter5_f_580_4052)">
<circle cx="197.5" cy="275.5" r="19.5" fill="#FFD857"/>
</g>
<g filter="url(#filter6_f_580_4052)">
<circle cx="376.5" cy="275.5" r="19.5" fill="#FFD857"/>
</g>
<g filter="url(#filter7_f_580_4052)">
<circle cx="322.5" cy="158.5" r="19.5" fill="#FFD857"/>
</g>
<path d="M484.559 511.522L484.492 511.389C483.493 509.497 482.444 507.174 481.328 504.718C479.362 500.404 477.347 495.94 474.982 492.356C470.635 485.785 464.156 480.259 458.444 475.381C456.129 473.406 455.479 471.913 455.113 469.855C453.181 459.185 451.981 446.624 450.682 433.316C449.65 422.53 448.567 411.379 447.002 399.564C445.436 387.783 442.338 378.988 439.34 370.475C435.776 360.353 432.412 350.795 432.228 337.205C432.162 331.928 431.945 315.866 431.895 308.498C431.829 298.243 430.913 294.178 429.131 283.309C427.498 273.336 424.384 251.532 424.367 251.316C424.001 248.446 423.801 244.861 423.601 241.095C423.135 232.582 422.602 222.924 419.754 216.055C415.99 206.945 409.644 198.1 400.85 191.878C390.774 184.759 377.117 181.274 369.888 179.847C367.823 179.432 365.791 178.702 363.859 177.673C353.2 171.949 337.844 166.589 328.683 163.386C327.134 162.855 325.785 162.374 324.669 161.976C323.587 161.594 322.871 160.499 322.871 159.255V136.986C333.313 129.369 340.625 117.206 342.607 104.064C346.538 77.8957 345.588 60.6051 345.588 59.7422C345.588 24.2151 318.724 2.59356 291.709 1.73069C291.542 1.7141 291.343 1.68091 291.126 1.68091H291.009H290.81C290.643 1.68091 290.46 1.68091 290.293 1.68091C290.06 1.68091 289.894 1.68091 289.727 1.68091H289.027C288.794 1.68091 288.628 1.68091 288.445 1.68091C288.211 1.68091 288.045 1.68091 287.878 1.68091H287.545C287.329 1.68091 287.145 1.6975 286.979 1.73069C259.981 2.59356 233.099 24.2151 233.099 59.7588C233.099 60.0575 232.85 78.3437 236.064 103.964C237.696 116.941 245.025 129.154 255.8 136.986V159.255C255.8 160.499 255.084 161.594 254.002 161.976C252.886 162.374 251.52 162.855 249.988 163.386C240.827 166.589 225.471 171.949 214.812 177.673C212.88 178.702 210.848 179.449 208.783 179.847C201.538 181.291 187.897 184.759 177.821 191.878C169.027 198.1 162.681 206.945 158.917 216.055C156.069 222.924 155.536 232.582 155.07 241.095C154.854 244.878 154.67 248.446 154.287 251.383C154.271 251.549 151.156 273.353 149.524 283.326C147.742 294.194 146.826 298.26 146.759 308.515C146.709 315.882 146.493 331.945 146.426 337.222C146.243 350.795 142.879 360.37 139.314 370.492C136.316 379.005 133.219 387.799 131.653 399.581C130.087 411.412 129.005 422.563 127.972 433.349C126.69 446.657 125.474 459.219 123.559 469.888C123.192 471.946 122.543 473.439 120.227 475.414C114.515 480.293 108.036 485.835 103.689 492.389C101.324 495.974 99.292 500.437 97.3433 504.752C96.2274 507.207 95.1782 509.514 94.1788 511.422L94.1122 511.555L94.0456 511.704C93.2462 513.613 92.1303 516.218 93.6625 518.558C95.1448 520.831 97.9596 520.897 99.0255 520.914H99.242C103.422 520.914 106.554 518.508 108.702 516.102C108.319 517.13 107.919 518.209 107.486 519.354C105.621 524.316 102.24 533.359 100.458 538.155C99.8083 539.88 99.3753 541.059 99.292 541.291L99.242 541.424L99.2087 541.556C98.6424 543.481 98.5425 546.385 99.8916 548.758C100.758 550.285 102.14 551.38 103.789 551.811C104.505 551.994 105.205 552.093 105.904 552.093C107.52 552.093 109.651 551.579 111.617 549.472C111.484 550.135 111.384 550.633 111.35 550.965C110.717 557.536 113.982 559.643 116.847 560.257C117.463 560.39 118.096 560.457 118.695 560.457C122.209 560.457 125.057 558.316 126.123 554.865C126.19 554.665 126.307 554.284 126.457 553.736C127.306 556.043 129.188 557.752 131.703 558.216C132.136 558.299 132.569 558.333 133.002 558.333C136.55 558.333 139.664 555.727 140.78 551.844C141.013 551.031 141.246 550.185 141.479 549.322C142.862 552.292 145.61 552.873 147.026 552.973C147.176 552.973 147.342 552.973 147.492 552.973C151.323 552.973 154.404 550.003 154.987 545.755C155.253 543.763 159.517 519.769 161.499 511.937C162.298 508.8 163.115 504.038 163.364 501.068C163.731 496.704 163.831 493.003 163.681 489.751C163.514 486.216 163.181 478.865 164.097 474.783C166.129 465.69 170.676 454.639 175.506 442.924C182.784 425.284 191.012 405.272 191.911 387.932C191.961 387.119 191.995 386.223 192.045 385.26C192.611 373.429 193.81 352.123 201.238 318.753C204.303 304.997 205.135 297.629 205.602 291.008C205.785 291.556 205.852 292.17 205.852 293.033C205.852 301.131 209.299 315.086 212.33 327.398C214.296 335.396 216.161 342.947 216.361 346.149C216.827 354.081 217.061 364.917 217.294 375.404C217.427 381.095 217.544 386.472 217.693 391.384C218.326 411.528 214.063 437.149 211.514 452.448C211.015 455.419 210.598 457.941 210.299 459.899C206.551 484.69 202.204 522.64 207.467 565.667C211.814 619.729 220.175 649.083 225.172 665.644C227.187 672.298 228.636 677.11 228.836 680.595C229.152 685.955 229.102 690.037 228.669 692.741C228.403 694.401 228.02 696.707 227.57 699.412C225.821 709.916 223.173 725.779 223.04 732.417C222.54 755.25 226.138 774.598 230.301 793.15C232.05 800.916 233.849 808.947 235.498 818.123C235.731 819.434 236.447 821.99 237.513 825.873C240.894 838.102 249.904 870.593 245.508 879.337C240.811 888.696 235.531 895.068 231.284 900.179C226.121 906.385 222.057 911.297 222.257 917.818C222.44 923.858 229.952 926.38 253.169 928.173C256.067 928.388 258.965 928.455 261.763 928.521C264.578 928.587 267.226 928.637 269.558 928.853L270.257 928.919C272.739 929.152 275.553 929.417 278.102 929.417C280.9 929.417 282.948 929.102 284.564 928.438L284.697 928.372C286.096 927.791 287.895 927.044 289.377 925.418C290.826 927.028 292.592 927.758 293.974 928.322L294.224 928.421C295.839 929.085 297.871 929.401 300.653 929.401C303.151 929.401 305.932 929.135 308.364 928.919L309.13 928.853C311.462 928.637 314.11 928.587 316.925 928.521C319.723 928.455 322.621 928.405 325.519 928.173C348.719 926.38 356.231 923.875 356.431 917.818C356.631 911.297 352.567 906.385 347.404 900.179C343.157 895.068 337.877 888.696 333.18 879.337C328.783 870.593 337.794 838.102 341.175 825.873C342.241 822.006 342.957 819.451 343.19 818.123C344.839 808.93 346.654 800.916 348.386 793.15C352.55 774.598 356.164 755.25 355.648 732.417C355.498 725.779 352.867 709.916 351.118 699.412C350.668 696.724 350.285 694.401 350.019 692.741C349.602 690.037 349.536 685.955 349.852 680.595C350.052 677.094 351.518 672.298 353.516 665.644C358.513 649.083 366.857 619.729 371.221 565.667C376.5 522.64 372.137 484.69 368.389 459.899C368.089 457.941 367.673 455.402 367.173 452.448C364.625 437.149 360.361 411.528 360.994 391.384C361.144 386.455 361.261 381.095 361.394 375.404C361.627 364.917 361.877 354.081 362.327 346.149C362.51 342.88 364.425 335.098 366.441 326.867C369.439 314.605 372.836 300.716 372.836 293.033C372.836 292.17 372.903 291.573 373.053 291.058C373.552 297.646 374.385 305.013 377.45 318.77C384.894 352.139 386.077 373.446 386.643 385.277C386.693 386.24 386.727 387.136 386.777 387.949C387.676 405.289 395.92 425.284 403.182 442.94C408.012 454.655 412.559 465.707 414.591 474.8C415.507 478.882 415.174 486.233 415.007 489.768C414.857 493.02 414.957 496.72 415.323 501.084C415.573 504.055 416.389 508.817 417.189 511.953C419.187 519.785 423.435 543.78 423.701 545.771C424.284 550.019 427.365 552.989 431.196 552.989C431.346 552.989 431.512 552.989 431.662 552.989C433.078 552.89 435.826 552.326 437.208 549.339C437.441 550.202 437.675 551.048 437.908 551.861C439.024 555.744 442.155 558.349 445.686 558.349C446.119 558.349 446.552 558.316 446.985 558.233C449.5 557.752 451.382 556.059 452.231 553.753C452.381 554.284 452.498 554.665 452.564 554.881C453.647 558.333 456.495 560.473 459.993 560.473C460.609 560.473 461.225 560.407 461.841 560.274C464.706 559.66 467.97 557.553 467.337 550.982C467.304 550.65 467.221 550.152 467.071 549.488C469.053 551.596 471.185 552.11 472.784 552.11C473.467 552.11 474.183 552.01 474.899 551.828C476.531 551.396 477.913 550.318 478.796 548.775C480.145 546.385 480.029 543.498 479.479 541.573L479.446 541.44L479.396 541.307C479.313 541.075 478.88 539.897 478.23 538.171C476.448 533.376 473.067 524.316 471.201 519.371C470.768 518.226 470.369 517.147 469.986 516.118C472.134 518.508 475.265 520.93 479.446 520.93H479.662C480.728 520.914 483.543 520.847 485.025 518.574C486.541 516.234 485.442 513.629 484.642 511.721L484.576 511.572L484.559 511.522ZM239.662 103.483C236.43 77.7463 236.78 59.7256 236.78 59.7256C236.78 26.1234 262.113 6.01186 287.312 5.33152C287.379 5.33152 287.445 5.29833 287.528 5.29833C287.612 5.29833 287.712 5.29833 287.795 5.29833C288.011 5.29833 288.195 5.29833 288.378 5.29833C288.561 5.29833 288.744 5.29833 288.928 5.29833C289.061 5.29833 289.144 5.29833 289.244 5.29833C289.477 5.29833 289.577 5.29833 289.66 5.29833C289.877 5.29833 290.06 5.29833 290.243 5.29833C290.426 5.29833 290.61 5.29833 290.793 5.29833C290.909 5.29833 291.009 5.29833 291.093 5.29833C291.159 5.29833 291.243 5.33152 291.309 5.33152C316.508 6.01186 341.841 26.1234 341.841 59.7256C341.841 59.7256 342.89 77.2817 338.96 103.483C337.011 116.459 329.599 127.61 318.973 135.177C315.826 137.417 312.361 139.259 308.947 141.035C306.066 142.528 303.034 144.254 299.887 145.117C296.039 146.179 282.615 146.179 278.768 145.117C275.137 144.104 271.623 142.063 268.325 140.305C262.196 137.019 256.1 133.236 251.37 128.108C246.923 123.279 243.459 117.505 241.444 111.266C240.628 108.743 240.045 106.138 239.712 103.5L239.662 103.483ZM290.043 873.198C290.043 877.446 290.01 881.81 289.061 886.805C288.161 882.308 288.195 877.877 288.211 873.596C288.211 871.223 288.245 868.767 288.095 866.345C287.928 863.524 287.762 860.918 287.612 858.413C287.012 848.838 286.529 841.255 286.529 829.357C286.529 820.214 286.812 812.813 287.395 806.076C288.011 799.074 288.711 789.532 289.277 779.593C289.844 789.433 290.526 798.891 291.143 805.844C291.742 812.714 292.042 820.264 292.042 828.942C292.042 843.18 291.409 850.912 290.81 858.396C290.593 860.968 290.393 863.64 290.21 866.51C290.06 868.751 290.06 871.024 290.043 873.214V873.198ZM286.962 644.819C287.995 636.223 288.728 627.196 289.261 617.937C289.794 627.097 290.543 636.024 291.576 644.587C291.542 646.827 291.459 658.758 292.708 672.165C293.524 681.01 293.208 689.821 291.742 698.317C290.71 704.291 289.894 710.729 289.294 717.732C288.678 710.679 287.862 704.208 286.829 698.201C285.413 689.987 285.064 681.424 285.813 672.746C286.562 664.084 286.729 655.057 286.829 649.648C286.862 647.507 286.912 645.3 286.979 644.802L286.962 644.819ZM479.562 517.213C479.562 517.213 479.462 517.213 479.412 517.213C474.183 517.213 470.918 511.273 469.836 509.696C469.07 508.568 463.823 499.259 461.708 498.761C461.675 498.761 461.641 498.761 461.608 498.761C459.493 498.761 466.421 517.13 467.737 520.615C470.285 527.352 475.598 541.673 475.932 542.552C476.531 544.593 476.131 547.679 473.95 548.26C473.55 548.36 473.167 548.426 472.784 548.426C471.118 548.426 469.703 547.381 468.47 545.174C467.104 542.751 459.293 521.544 457.711 517.396C457.594 517.081 457.278 516.898 456.945 516.898C456.845 516.898 456.728 516.915 456.628 516.948L455.063 517.479C454.68 517.612 454.463 517.993 454.58 518.375C455.895 522.706 463.357 548.277 463.657 551.297C463.973 554.616 463.29 556.192 461.042 556.673C460.675 556.756 460.309 556.789 459.959 556.789C458.16 556.789 456.662 555.777 456.029 553.769C455.346 551.596 448.101 526.124 446.685 521.312C446.568 520.93 446.202 520.682 445.786 520.682C445.702 520.682 445.636 520.682 445.553 520.715L443.854 520.964C443.354 521.063 443.038 521.511 443.154 521.976C444.07 525.975 448.301 545.273 448.984 549.953C449.3 552.193 448.351 554.251 446.269 554.649C446.069 554.682 445.852 554.699 445.652 554.699C443.804 554.699 442.055 553.172 441.405 550.865C438.391 540.345 435.709 524.946 435.21 522.142C435.16 521.826 434.893 521.561 434.543 521.511L432.562 521.279C432.562 521.279 432.445 521.279 432.395 521.279C431.912 521.279 431.579 521.677 431.612 522.158C431.895 526.755 434.26 539.416 434.327 544.859C434.377 547.912 433.411 549.239 431.379 549.372C431.296 549.372 431.229 549.372 431.146 549.372C429.23 549.372 427.615 547.746 427.282 545.307C426.999 543.266 422.735 519.089 420.686 511.09C419.97 508.303 419.171 503.69 418.921 500.835C418.521 496.056 418.488 492.638 418.604 489.983C418.804 485.619 419.087 478.5 418.105 474.053C412.858 450.557 391.806 415.66 390.374 387.816C389.791 376.665 389.058 354.346 380.964 318.023C376.833 299.538 376.85 290.278 376.184 285.001C376.25 284.819 376.317 284.636 376.367 284.47C377.633 280.305 377.766 276.854 378.016 274.514C378.199 272.175 378.382 270.88 378.382 270.88C378.466 270.349 378.132 269.818 377.583 269.685C377 269.536 376.417 269.885 376.267 270.449C376.267 270.465 375.901 271.826 375.468 274.182C375.018 276.522 374.652 279.891 373.436 283.491C372.786 285.35 371.937 287.142 370.621 288.818C369.339 290.494 367.573 291.938 365.541 293.132C363.509 294.327 361.178 295.223 358.713 295.887C357.463 296.219 356.214 296.517 354.965 296.75L352.967 297.082C352.367 297.181 351.667 297.264 351.018 297.347C345.755 298.011 340.375 298.193 335.379 298.044C332.88 297.961 330.449 297.862 328.167 297.646C325.885 297.447 323.737 297.131 321.771 296.833C317.824 296.219 314.643 295.339 312.478 294.576C311.379 294.194 310.596 293.829 310.046 293.58C309.48 293.298 309.163 293.149 309.163 293.149C308.747 292.933 308.231 293.066 307.948 293.464C307.648 293.896 307.764 294.476 308.181 294.775C308.181 294.775 308.464 294.974 308.98 295.323C309.547 295.688 310.413 296.202 311.512 296.733C313.727 297.862 317.058 299.023 321.122 299.952C323.154 300.434 325.386 300.765 327.751 301.064C330.116 301.346 332.614 301.595 335.212 301.695C340.392 301.877 345.938 301.761 351.468 301.064C352.167 300.965 352.817 300.882 353.566 300.749L355.581 300.384C356.98 300.102 358.363 299.77 359.695 299.388C362.377 298.592 364.975 297.513 367.307 296.069C367.89 295.704 368.439 295.323 368.989 294.924C368.139 308.448 359.029 337.786 358.563 345.95C357.847 358.163 357.663 377.113 357.214 391.284C356.447 415.793 362.843 448.549 364.642 460.463C369.289 491.228 372.237 526.307 367.44 565.319C361.261 642.197 346.837 667.386 346.071 680.412C345.772 685.374 345.755 690.02 346.271 693.339C347.52 701.32 351.684 724.469 351.851 732.516C352.55 764.343 345.072 786.263 339.443 817.509C338.377 823.4 323.52 868.568 329.766 880.997C340.092 901.573 352.933 907.978 352.633 917.719C352.6 918.913 351.368 919.909 349.302 920.755C347.987 921.286 346.504 920.473 346.221 919.096C346.021 918.183 345.705 917.287 345.139 916.408C344.622 915.611 343.64 914.317 342.84 914.699C342.041 915.064 342.49 916.474 342.64 916.939C343.007 918.067 343.007 919.544 342.94 920.706C342.874 921.767 342.074 922.63 341.025 922.813C340.425 922.912 339.809 923.012 339.176 923.095C337.594 923.327 336.145 922.232 335.862 920.656C335.679 919.627 335.345 918.615 334.713 917.636C334.196 916.839 333.23 915.561 332.414 915.927C331.615 916.292 332.064 917.702 332.214 918.167C332.581 919.278 332.581 920.788 332.497 921.983C332.431 923.095 331.565 923.991 330.449 924.107C329.766 924.174 329.1 924.223 328.4 924.29C326.801 924.422 325.319 923.294 325.119 921.718C324.936 920.224 324.536 918.781 323.637 917.37C323.037 916.424 321.871 914.914 320.955 915.329C320.356 915.611 320.289 916.457 320.772 917.934C321.089 918.913 321.189 920.108 321.189 921.237C321.189 923.211 319.623 924.854 317.641 924.887C316.658 924.904 315.676 924.92 314.726 924.953C312.878 925.003 311.312 923.626 311.079 921.801C310.796 919.527 310.146 917.752 309.83 915.628C309.347 912.392 305.716 912.392 305.25 915.628C305.05 916.972 305.483 917.519 305.916 918.747C307.098 922.149 304.55 925.75 300.936 925.783C300.819 925.783 300.686 925.783 300.569 925.783C298.587 925.783 296.805 925.601 295.556 925.086C293.125 924.074 290.909 923.327 290.377 918.664C290.277 916.242 290.343 913.504 290.377 913.504C290.56 909.123 291.143 894.321 292.309 889.128C294.29 880.383 293.408 873.563 293.857 866.776C294.574 855.675 295.706 848.291 295.706 828.893C295.706 820.43 295.323 811.984 294.624 803.554C293.191 786.512 291.309 752.047 291.826 736.914C292.425 719.208 293.907 707.427 295.273 699.412C296.805 690.418 297.238 681.259 296.372 672.182C295.29 660.716 295.157 649.382 295.24 644.454C289.344 596.249 292.825 534.421 292.408 490.348C292.708 490.348 293.008 490.348 293.324 490.332C306.682 489.751 308.764 478.816 308.797 478.699C308.88 478.251 308.614 477.803 308.164 477.671C307.731 477.538 307.248 477.737 307.065 478.152C304.117 484.458 296.039 486.93 292.375 486.93H286.196C282.166 486.98 274.088 484.092 271.523 478.168C271.34 477.737 270.873 477.521 270.424 477.654C269.974 477.787 269.707 478.235 269.791 478.683C269.807 478.799 271.906 489.734 285.263 490.315C285.58 490.315 285.896 490.332 286.179 490.332C285.763 534.421 289.077 596.664 283.365 644.437C283.132 646.445 283.281 659.786 282.182 672.497C281.416 681.342 281.749 690.236 283.248 698.997C284.63 707.012 286.146 718.91 286.762 736.914C287.279 751.964 285.413 786.18 283.998 803.272C283.398 810.507 282.898 822.371 282.898 829.623C282.898 844.673 283.698 853.136 284.481 866.61C284.88 873.563 283.948 880.698 285.696 888.497C287.062 894.554 287.479 908.874 287.828 912.375C287.862 915.893 288.295 918.648 287.345 921.967C286.363 923.792 284.797 924.389 283.115 925.086C281.866 925.601 280.067 925.783 278.052 925.783C277.918 925.783 277.769 925.783 277.635 925.783C274.021 925.733 271.473 922.149 272.655 918.747C273.088 917.519 273.505 916.972 273.322 915.628C272.855 912.375 269.224 912.375 268.741 915.628C268.425 917.735 267.775 919.527 267.492 921.801C267.259 923.643 265.694 925.003 263.845 924.953C262.879 924.937 261.913 924.904 260.93 924.887C258.948 924.837 257.383 923.211 257.383 921.237C257.383 920.108 257.483 918.913 257.799 917.934C258.265 916.457 258.199 915.611 257.616 915.329C256.683 914.914 255.534 916.424 254.934 917.37C254.035 918.781 253.635 920.224 253.452 921.734C253.252 923.327 251.77 924.456 250.171 924.306C249.488 924.24 248.805 924.19 248.122 924.124C247.007 924.024 246.14 923.128 246.074 922C245.991 920.805 246.007 919.295 246.357 918.183C246.507 917.719 246.957 916.325 246.157 915.943C245.341 915.561 244.375 916.856 243.859 917.652C243.226 918.631 242.893 919.643 242.709 920.672C242.426 922.249 240.977 923.344 239.395 923.112C238.762 923.012 238.146 922.929 237.546 922.829C236.497 922.664 235.698 921.784 235.631 920.722C235.564 919.577 235.564 918.084 235.931 916.955C236.081 916.491 236.53 915.097 235.731 914.715C234.915 914.333 233.932 915.628 233.433 916.424C232.866 917.304 232.55 918.2 232.35 919.112C232.05 920.49 230.568 921.303 229.269 920.772C227.204 919.942 225.971 918.946 225.938 917.735C225.638 907.978 238.479 901.589 248.805 881.013C255.051 868.585 240.178 823.417 239.129 817.526C233.499 786.28 226.004 764.36 226.721 732.533C226.904 724.469 231.051 701.32 232.3 693.355C232.816 690.037 232.783 685.39 232.5 680.429C231.734 667.403 217.31 642.214 211.131 565.335C206.335 526.323 209.299 491.244 213.929 460.48C215.728 448.582 222.124 415.826 221.358 391.301C220.925 377.13 220.725 358.18 220.009 345.967C219.526 337.786 210.398 308.913 209.582 294.941C210.132 295.339 210.682 295.721 211.265 296.086C213.596 297.53 216.194 298.625 218.876 299.405C220.208 299.786 221.591 300.118 222.99 300.4L225.005 300.765C225.738 300.898 226.404 300.981 227.104 301.081C232.633 301.794 238.179 301.894 243.359 301.711C245.957 301.612 248.456 301.363 250.821 301.081C253.186 300.782 255.417 300.45 257.449 299.969C261.513 299.04 264.844 297.878 267.059 296.75C268.159 296.219 269.025 295.704 269.591 295.339C270.124 294.974 270.39 294.792 270.39 294.792C270.773 294.526 270.907 294.012 270.707 293.58C270.474 293.116 269.907 292.917 269.424 293.166C269.424 293.166 269.125 293.315 268.542 293.597C267.992 293.846 267.209 294.211 266.11 294.593C263.961 295.356 260.764 296.252 256.816 296.849C254.851 297.131 252.703 297.463 250.421 297.662C248.139 297.878 245.724 297.978 243.209 298.061C238.196 298.21 232.833 298.011 227.57 297.364C226.92 297.281 226.238 297.198 225.621 297.098L223.623 296.766C222.374 296.534 221.124 296.235 219.875 295.904C217.41 295.223 215.079 294.327 213.047 293.149C211.015 291.971 209.266 290.511 207.967 288.835C206.651 287.159 205.802 285.367 205.152 283.508C203.936 279.907 203.57 276.539 203.12 274.199C202.687 271.843 202.321 270.482 202.321 270.482C202.171 269.934 201.655 269.586 201.105 269.669C200.505 269.752 200.106 270.299 200.189 270.897C200.189 270.897 200.389 272.191 200.555 274.531C200.805 276.871 200.938 280.322 202.204 284.487C202.254 284.653 202.337 284.852 202.387 285.018C201.721 290.278 201.738 299.521 197.607 318.039C189.513 354.346 188.78 376.682 188.197 387.833C186.765 415.677 165.696 450.557 160.466 474.07C159.467 478.534 159.767 485.636 159.967 490C160.083 492.655 160.05 496.073 159.65 500.852C159.417 503.706 158.601 508.336 157.885 511.124C155.836 519.138 151.572 543.315 151.289 545.34C150.956 547.779 149.341 549.405 147.425 549.405C147.359 549.405 147.275 549.405 147.192 549.405C145.177 549.272 144.211 547.945 144.244 544.892C144.327 539.449 146.693 526.788 146.959 522.192C146.992 521.71 146.643 521.312 146.16 521.312C146.11 521.312 146.06 521.312 145.993 521.312L144.011 521.544C143.661 521.611 143.395 521.86 143.345 522.175C142.862 524.996 140.18 540.378 137.149 550.899C136.483 553.189 134.751 554.732 132.902 554.732C132.702 554.732 132.486 554.715 132.286 554.682C130.221 554.284 129.255 552.226 129.571 549.986C130.237 545.307 134.484 526.008 135.4 522.009C135.5 521.544 135.184 521.096 134.701 520.997L133.002 520.748C133.002 520.748 132.852 520.715 132.769 520.715C132.352 520.715 131.986 520.964 131.869 521.345C130.454 526.157 123.209 551.629 122.526 553.803C121.893 555.81 120.394 556.823 118.595 556.823C118.246 556.823 117.879 556.789 117.513 556.706C115.264 556.225 114.581 554.649 114.898 551.33C115.198 548.31 122.659 522.723 123.975 518.408C124.091 518.043 123.875 517.661 123.492 517.512L121.926 516.981C121.826 516.948 121.726 516.931 121.61 516.931C121.277 516.931 120.977 517.114 120.844 517.429C119.261 521.578 111.45 542.784 110.085 545.207C108.852 547.414 107.436 548.459 105.771 548.459C105.388 548.459 105.005 548.41 104.605 548.293C102.423 547.713 102.023 544.643 102.623 542.585C102.956 541.706 108.269 527.385 110.817 520.648C112.133 517.164 119.062 498.794 116.946 498.794C116.913 498.794 116.88 498.794 116.847 498.794C114.715 499.292 109.485 508.601 108.719 509.73C107.636 511.306 104.388 517.247 99.1421 517.247C99.0921 517.247 99.0422 517.247 98.9922 517.247C95.9443 517.18 96.0109 516.201 97.3267 513.115C100.141 507.821 103.123 499.757 106.67 494.397C110.601 488.44 116.38 483.445 122.526 478.185C125.557 475.596 126.573 473.356 127.073 470.519C130.554 451.287 131.636 426.911 135.2 400.045C138.598 374.458 149.657 362.842 150.007 337.272C150.107 330.252 150.29 315.584 150.34 308.548C150.407 298.16 151.373 294.178 153.055 283.923C154.72 273.801 157.835 251.847 157.835 251.847C159.067 242.173 158.401 226.658 162.215 217.449C165.913 208.521 171.925 200.457 179.853 194.865C187.731 189.289 198.124 186.053 205.169 184.361C205.202 184.361 205.219 184.361 205.252 184.361C205.252 184.361 205.652 184.344 206.351 184.294C207.034 184.278 208.017 184.245 209.183 184.195C211.531 184.145 214.712 184.195 217.927 184.195C221.141 184.195 224.372 184.128 226.787 183.996C229.202 183.83 230.801 183.73 230.801 183.73C231.517 183.68 232.083 183.066 232.05 182.353C232.017 181.623 231.401 181.059 230.668 181.092C230.668 181.092 224.339 181.374 218.01 181.059C217.427 181.042 216.827 181.009 216.244 180.976C216.311 180.942 216.394 180.909 216.461 180.859C228.669 174.322 247.506 168.132 255.151 165.378C257.682 164.465 259.381 162.009 259.381 159.221C259.381 154.276 259.381 144.918 259.381 139.408C265.111 143.042 274.338 147.705 277.702 148.635C279.917 149.249 284.581 149.547 289.244 149.547C293.907 149.547 298.571 149.249 300.786 148.635C304.15 147.705 313.377 143.042 319.107 139.408C319.107 144.918 319.107 154.276 319.107 159.221C319.107 162.009 320.805 164.465 323.337 165.378C330.982 168.116 349.819 174.305 362.027 180.859C362.094 180.893 362.177 180.926 362.243 180.976C361.661 181.009 361.078 181.025 360.478 181.059C354.149 181.374 347.82 181.092 347.82 181.092C347.087 181.059 346.471 181.606 346.421 182.336C346.371 183.066 346.921 183.697 347.654 183.747C347.654 183.747 349.269 183.846 351.667 184.012C354.082 184.145 357.314 184.228 360.528 184.211C363.742 184.211 366.924 184.145 369.272 184.211C370.438 184.245 371.42 184.278 372.103 184.311C372.803 184.344 373.203 184.377 373.203 184.377C380.364 186.07 390.74 189.306 398.618 194.865C406.546 200.473 412.559 208.538 416.256 217.449C420.07 226.658 419.387 242.157 420.636 251.847C420.636 251.847 423.751 273.801 425.416 283.923C427.099 294.178 428.065 298.16 428.131 308.548C428.181 315.584 428.381 330.252 428.464 337.272C428.814 362.842 439.856 374.475 443.271 400.045C446.852 426.911 447.934 451.27 451.398 470.519C451.915 473.356 452.931 475.596 455.945 478.185C462.108 483.445 467.87 488.44 471.801 494.397C475.349 499.757 478.33 507.805 481.145 513.115C482.46 516.218 482.527 517.18 479.479 517.247L479.562 517.213Z" fill="#D2BA91"/>
<path opacity="0.4" d="M140.03 482.699C139.614 482.649 139.214 482.948 139.098 483.363C136.416 492.971 129.238 499.177 124.075 503.026C123.692 503.309 123.592 503.84 123.842 504.238C124.008 504.52 124.308 504.669 124.624 504.669C124.774 504.669 124.908 504.636 125.057 504.57C125.341 504.42 132.186 500.786 136.716 495.51C141.863 489.519 140.93 483.695 140.88 483.446C140.813 483.031 140.447 482.716 140.014 482.683L140.03 482.699Z" fill="#D2BA91"/>
<path opacity="0.4" d="M439.49 483.378C439.374 482.963 438.974 482.665 438.558 482.714C438.125 482.731 437.775 483.046 437.691 483.478C437.642 483.727 436.709 489.551 441.855 495.541C446.385 500.818 453.231 504.436 453.514 504.601C453.647 504.668 453.797 504.701 453.947 504.701C454.247 504.701 454.546 504.552 454.73 504.27C454.98 503.871 454.88 503.34 454.497 503.058C449.333 499.208 442.155 493.002 439.474 483.395L439.49 483.378Z" fill="#D2BA91"/>
<path d="M289.294 396.094C286.246 396.094 283.798 397.554 283.798 399.363C283.798 401.172 286.263 402.632 289.294 402.632C292.325 402.632 294.807 401.172 294.807 399.363C294.807 397.554 292.342 396.094 289.294 396.094Z" fill="#D2BA91"/>
<rect x="115" y="566" width="371" height="93" fill="url(#paint0_linear_580_4052)"/>
</g>
<defs>
<filter id="filter0_f_580_4052" x="216.387" y="-16" width="145.308" height="181.298" filterUnits="userSpaceOnUse" color-interpolation-filters="sRGB">
<feFlood flood-opacity="0" result="BackgroundImageFix"/>
<feBlend mode="normal" in="SourceGraphic" in2="BackgroundImageFix" result="shape"/>
<feGaussianBlur stdDeviation="10" result="effect1_foregroundBlur_580_4052"/>
</filter>
<filter id="filter1_f_580_4052" x="76.0728" y="118.744" width="426.021" height="830.289" filterUnits="userSpaceOnUse" color-interpolation-filters="sRGB">
<feFlood flood-opacity="0" result="BackgroundImageFix"/>
<feBlend mode="normal" in="SourceGraphic" in2="BackgroundImageFix" result="shape"/>
<feGaussianBlur stdDeviation="10" result="effect1_foregroundBlur_580_4052"/>
</filter>
<filter id="filter2_f_580_4052" x="231" y="134" width="49" height="49" filterUnits="userSpaceOnUse" color-interpolation-filters="sRGB">
<feFlood flood-opacity="0" result="BackgroundImageFix"/>
<feBlend mode="normal" in="SourceGraphic" in2="BackgroundImageFix" result="shape"/>
<feGaussianBlur stdDeviation="2.5" result="effect1_foregroundBlur_580_4052"/>
</filter>
<filter id="filter3_f_580_4052" x="211" y="209" width="49" height="49" filterUnits="userSpaceOnUse" color-interpolation-filters="sRGB">
<feFlood flood-opacity="0" result="BackgroundImageFix"/>
<feBlend mode="normal" in="SourceGraphic" in2="BackgroundImageFix" result="shape"/>
<feGaussianBlur stdDeviation="2.5" result="effect1_foregroundBlur_580_4052"/>
</filter>
<filter id="filter4_f_580_4052" x="317" y="209" width="49" height="49" filterUnits="userSpaceOnUse" color-interpolation-filters="sRGB">
<feFlood flood-opacity="0" result="BackgroundImageFix"/>
<feBlend mode="normal" in="SourceGraphic" in2="BackgroundImageFix" result="shape"/>
<feGaussianBlur stdDeviation="2.5" result="effect1_foregroundBlur_580_4052"/>
</filter>
<filter id="filter5_f_580_4052" x="173" y="251" width="49" height="49" filterUnits="userSpaceOnUse" color-interpolation-filters="sRGB">
<feFlood flood-opacity="0" result="BackgroundImageFix"/>
<feBlend mode="normal" in="SourceGraphic" in2="BackgroundImageFix" result="shape"/>
<feGaussianBlur stdDeviation="2.5" result="effect1_foregroundBlur_580_4052"/>
</filter>
<filter id="filter6_f_580_4052" x="352" y="251" width="49" height="49" filterUnits="userSpaceOnUse" color-interpolation-filters="sRGB">
<feFlood flood-opacity="0" result="BackgroundImageFix"/>
<feBlend mode="normal" in="SourceGraphic" in2="BackgroundImageFix" result="shape"/>
<feGaussianBlur stdDeviation="2.5" result="effect1_foregroundBlur_580_4052"/>
</filter>
<filter id="filter7_f_580_4052" x="298" y="134" width="49" height="49" filterUnits="userSpaceOnUse" color-interpolation-filters="sRGB">
<feFlood flood-opacity="0" result="BackgroundImageFix"/>
<feBlend mode="normal" in="SourceGraphic" in2="BackgroundImageFix" result="shape"/>
<feGaussianBlur stdDeviation="2.5" result="effect1_foregroundBlur_580_4052"/>
</filter>
<linearGradient id="paint0_linear_580_4052" x1="300.5" y1="659" x2="300.5" y2="566" gradientUnits="userSpaceOnUse">
<stop stop-color="#fafafa"/>
<stop offset="1" stop-color="#fafafa" stop-opacity="0"/>
</linearGradient>
<clipPath id="clip0_580_4052">
<rect width="579" height="659" fill="#fafafa"/>
</clipPath>
<clipPath id="clip1_580_4052">
<rect width="386" height="925" fill="#fafafa" transform="translate(96 4)"/>
</clipPath>
</defs>
</svg>